<?xml version="1.0" standalone="no"?><!DOCTYPE svg PUBLIC "-//W3C//DTD SVG 1.1//EN" "http://www.w3.org/Graphics/SVG/1.1/DTD/svg11.dtd"><svg t="1605776402839" class="icon" viewBox="0 0 1280 1024" version="1.1" xmlns="http://www.w3.org/2000/svg" p-id="4241" width="14" height="14" xmlns:xlink="http://www.w3.org/1999/xlink"><defs><style type="text/css"></style></defs><path d="M908.8 313.6c0-6.4 0-19.2-12.8-25.6-12.8-12.8-38.4-12.8-51.2 0L697.6 435.2c-12.8 12.8-12.8 38.4 0 51.2 12.8 12.8 38.4 12.8 51.2 0l89.6-89.6v544c0 19.2 12.8 32 32 32s32-12.8 32-32l6.4-627.2z m134.4 620.8V313.6c0-19.2 12.8-32 32-32s32 12.8 32 32v537.6l89.6-89.6c12.8-12.8 38.4-12.8 51.2 0 12.8 12.8 12.8 38.4 0 51.2L1100.8 960c-12.8 12.8-38.4 12.8-51.2 0 0-6.4-6.4-19.2-6.4-25.6z m-1024-896c0-19.2 12.8-32 32-32h1075.2c19.2 0 32 12.8 32 32s-12.8 32-32 32H51.2c-12.8 0-32-12.8-32-32z m0 448c0-19.2 12.8-32 32-32h499.2c19.2 0 32 12.8 32 32s-12.8 32-32 32H51.2c-12.8 0-32-12.8-32-32z m0 448c0-19.2 12.8-32 32-32h659.2c19.2 0 32 12.8 32 32s-12.8 32-32 32H51.2c-12.8 6.4-32-12.8-32-32z" p-id="4242" fill="#ffffff"></path></svg>