<?xml version="1.0" standalone="no"?><!DOCTYPE svg PUBLIC "-//W3C//DTD SVG 1.1//EN" "http://www.w3.org/Graphics/SVG/1.1/DTD/svg11.dtd"><svg t="1597590551484" class="icon" viewBox="0 0 1025 1024" version="1.1" xmlns="http://www.w3.org/2000/svg" p-id="7233" xmlns:xlink="http://www.w3.org/1999/xlink" width="14" height="14"><defs><style type="text/css"></style></defs><path d="M504.146221 0C311.39328 0 148.757986 120.470588 79.487398 289.129412H7.205045c-6.023529 0-9.035294 3.011765-6.02353 9.035294l120.470589 207.811765c3.011765 3.011765 9.035294 3.011765 12.047058 0l120.470589-207.811765c3.011765-3.011765 0-9.035294-3.011765-9.035294H184.899162C260.19328 153.6 407.769751 60.235294 576.428574 60.235294c96.376471 0 183.717647 30.117647 256 78.305882C751.110927 54.211765 633.652104 0 504.146221 0zM519.205045 1024c192.752941 0 358.4-120.470588 427.670588-286.117647h72.282353c3.011765 0 6.023529-3.011765 3.011765-9.035294l-120.470589-207.811765c-3.011765-3.011765-9.035294-3.011765-12.047058 0l-120.470589 207.811765c-3.011765 3.011765 0 9.035294 3.011765 9.035294h63.247059c-78.305882 135.529412-222.870588 225.882353-391.529412 225.882353-96.376471 0-183.717647-30.117647-256-78.305882 87.341176 87.341176 204.8 138.541176 331.294118 138.541176z" fill="#ffffff" p-id="7234"></path><path d="M627.628574 406.588235c-15.058824-51.2-33.129412-90.352941-96.37647-99.388235v186.729412c60.235294 21.082353 129.505882 51.2 129.505882 132.517647 0 66.258824-48.188235 114.447059-129.505882 126.494117v69.270589h-21.082353V752.941176c-36.141176 0-78.305882-3.011765-120.470589-30.117647-6.023529-15.058824-12.047059-57.223529-21.082353-102.4l15.058824-6.023529c15.058824 42.164706 48.188235 108.423529 126.494118 117.458824v-201.788236l-33.129412-15.058823c-48.188235-21.082353-90.352941-51.2-90.352941-111.435294 0-54.211765 39.152941-108.423529 120.470588-117.458824v-60.235294h21.082353v63.247059c15.058824 0 42.164706 0 96.37647 15.058823 6.023529 24.094118 9.035294 51.2 15.058824 96.376471l-12.047059 6.023529z m-120.470588-99.388235c-57.223529 3.011765-84.329412 42.164706-84.329412 84.329412 0 45.176471 30.117647 78.305882 84.329412 96.37647v-180.705882z m21.082353 430.682353c60.235294-3.011765 84.329412-45.176471 84.329412-90.352941 0-21.082353 0-81.317647-84.329412-105.411765v195.764706z" fill="#ffffff" p-id="7235"></path></svg>