<?xml version="1.0" standalone="no"?><!DOCTYPE svg PUBLIC "-//W3C//DTD SVG 1.1//EN" "http://www.w3.org/Graphics/SVG/1.1/DTD/svg11.dtd"><svg t="1677306159316" class="icon" viewBox="0 0 1024 1024" version="1.1" xmlns="http://www.w3.org/2000/svg" p-id="5582" xmlns:xlink="http://www.w3.org/1999/xlink" width="64" height="64"><path d="M950.555 411.291l-380.258-300.594c-32.737-25.963-84.018-25.963-116.754 0l-380.097 300.594c-13.062 10.321-15.158 29.189-4.999 42.090s28.705 15.158 41.768 4.999l11.772-9.676v363.326c0 51.443 54.346 89.985 101.918 89.985h599.899c47.089 0 78.052-36.123 78.052-89.985v-362.036l10.966 8.386c5.483 4.354 12.256 6.451 18.868 6.451 8.87 0 17.739-3.87 23.706-11.45 10.321-12.901 8.225-31.769-4.838-42.090zM481.924 842.025v-166.424c0-8.225 14.997-12.417 29.995-12.417s29.995 4.192 29.995 12.417v166.263l-59.99 0.161zM842.025 812.030c0 19.836-5.483 29.995-18.062 29.995h-221.414c0-0.484-0.645-0.806-0.645-1.29v-165.133c0-34.833-28.059-72.407-89.985-72.407s-89.985 37.574-89.985 72.407v165.133c0 0.484 0.806 0.806 0.806 1.29h-198.676c-18.868 0-41.929-16.287-41.929-29.995v-410.899l308.174-243.346c11.127-8.708 31.124-8.708 42.090 0l309.464 244.797v409.447z" fill="#ffffff" p-id="5583"></path></svg>