<?xml version="1.0" standalone="no"?><!DOCTYPE svg PUBLIC "-//W3C//DTD SVG 1.1//EN" "http://www.w3.org/Graphics/SVG/1.1/DTD/svg11.dtd"><svg t="1596979339798" class="icon" viewBox="0 0 1024 1024" version="1.1" xmlns="http://www.w3.org/2000/svg" p-id="2429" xmlns:xlink="http://www.w3.org/1999/xlink" width="14" height="14"><defs><style type="text/css"></style></defs><path d="M1002.624 981.269333 21.354667 981.269333C9.557333 981.269333 0 990.826667 0 1002.624 0 1014.442667 9.557333 1024 21.354667 1024l981.269333 0C1014.464 1024 1024 1014.442667 1024 1002.624 1024 990.826667 1014.464 981.269333 1002.624 981.269333zM757.290667 925.866667l245.333333 0c11.84 0 21.376-9.557333 21.354667-21.376L1023.978667 561.066667c0-11.818667-9.514667-21.376-21.376-21.376L757.290667 539.690667c-11.84 0-21.354667 9.557333-21.354667 21.376l0 343.445333C735.936 916.309333 745.450667 925.866667 757.290667 925.866667zM778.666667 582.421333l202.581333 0 0 300.714667L778.666667 883.136 778.666667 582.421333zM389.333333 925.866667l245.312 0c11.861333 0 21.376-9.557333 21.376-21.376L656.021333 21.354667C656.021333 9.557333 646.506667 0 634.645333 0L389.333333 0c-11.797333 0-21.354667 9.557333-21.354667 21.354667l0 883.136C367.978667 916.309333 377.536 925.866667 389.333333 925.866667zM410.709333 42.730667l202.581333 0 0 840.405333-202.581333 0L410.709333 42.730667zM21.354667 925.866667l245.333333 0c11.797333 0 21.376-9.557333 21.333333-21.376L288.021333 364.8c0-11.776-9.578667-21.354667-21.354667-21.354667L21.354667 343.445333C9.557333 343.445333 0 353.002667 0 364.8l0 539.690667C0 916.309333 9.557333 925.866667 21.354667 925.866667zM42.730667 386.176l202.581333 0 0 496.938667L42.730667 883.114667 42.730667 386.176z" p-id="2430" fill="#ffffff"></path></svg>