<?xml version="1.0" standalone="no"?><!DOCTYPE svg PUBLIC "-//W3C//DTD SVG 1.1//EN" "http://www.w3.org/Graphics/SVG/1.1/DTD/svg11.dtd"><svg t="1596974078545" class="icon" viewBox="0 0 1024 1024" version="1.1" xmlns="http://www.w3.org/2000/svg" p-id="3386" width="48" height="48" xmlns:xlink="http://www.w3.org/1999/xlink"><defs><style type="text/css"></style></defs><path d="M873.43 566.71a33 33 0 0 0-33-33 33 33 0 0 0-21 7.53c-0.61 0.5-1.19 1-1.75 1.57a32.86 32.86 0 0 0-10.24 23.86c0 1.08 0.06 2.14 0.16 3.19-4.07 162.7-137.18 293.35-300.86 293.35-166.24 0-301-134.76-301-301 0-145.94 103.87-267.6 241.71-295.14l-20.61 20.61a32.09 32.09 0 0 0 0 45.25c0.37 0.37 0.75 0.73 1.13 1.07l0.41 0.36q0.63 0.55 1.27 1.06a32.1 32.1 0 0 0 39.63 0q0.65-0.51 1.27-1.06l0.45-0.36c0.38-0.35 0.76-0.7 1.13-1.07l79.16-79.16a31.69 31.69 0 0 0 7.34-11.48 32.08 32.08 0 0 0 1.41-5q0.15-0.76 0.26-1.52 0.22-1.52 0.29-3.06v-2-0.46a31.9 31.9 0 0 0-9.33-22.63l-79.11-79.11a32.09 32.09 0 0 0-45.25 0 31.74 31.74 0 0 0-8.42 15q-0.36 1.5-0.58 3t-0.28 3V152.69a31.86 31.86 0 0 0 9.3 21.09l29.41 29.41c-177.07 25.18-313.25 177.42-313.25 361.49 0 201.67 163.49 365.16 365.16 365.16 200.32 0 363-161.3 365.13-361.11 0.04-0.67 0.06-1.34 0.06-2.02z" p-id="3387" fill="#ffffff"></path></svg>