<?xml version="1.0" standalone="no"?><!DOCTYPE svg PUBLIC "-//W3C//DTD SVG 1.1//EN" "http://www.w3.org/Graphics/SVG/1.1/DTD/svg11.dtd"><svg t="1597063368788" class="icon" viewBox="0 0 1024 1024" version="1.1" xmlns="http://www.w3.org/2000/svg" p-id="2751" xmlns:xlink="http://www.w3.org/1999/xlink" width="14" height="14"><defs><style type="text/css"></style></defs><path d="M866 836H158c-16.6 0-30 13.4-30 30s13.4 30 30 30h708c16.6 0 30-13.4 30-30s-13.4-30-30-30zM192.3 759.6c2.5 0.6 5 0.9 7.5 0.9 13.4 0 25.6-9 29-22.6l82.9-323.8L425 656.9c4.9 10.5 15.3 17.2 26.9 17.3h0.3c11.4 0 21.9-6.5 26.9-16.8L562 489l93.3 88.3c7.4 7.1 17.9 9.8 27.9 7.3 9.9-2.5 17.9-9.8 21.2-19.5l133.8-397.5c5.3-15.7-3.2-32.7-18.9-38-15.7-5.3-32.7 3.2-38 18.9l-118.8 353-65.3-61.8-24.6-22c-7-6.3-16.5-8.8-25.7-7.1-9.2 1.8-17.1 7.8-21.2 16.2l-72.8 148-122.3-262c-5.4-11.5-17.3-18.4-30-17.2-12.6 1.2-23.1 10.2-26.3 22.4L170.5 723c-3.9 16.1 5.8 32.5 21.8 36.6z" p-id="2752" fill="#ffffff"></path></svg>