<?xml version="1.0" standalone="no"?><!DOCTYPE svg PUBLIC "-//W3C//DTD SVG 1.1//EN" "http://www.w3.org/Graphics/SVG/1.1/DTD/svg11.dtd"><svg t="1607651850028" class="icon" viewBox="0 0 1024 1024" version="1.1" xmlns="http://www.w3.org/2000/svg" p-id="5205" xmlns:xlink="http://www.w3.org/1999/xlink" width="14" height="14"><defs><style type="text/css"></style></defs><path d="M842.666667 128a96 96 0 0 1 95.786666 89.429333L938.666667 224v448.085333a96 96 0 0 1-89.429334 95.786667l-6.570666 0.213333H661.333333V874.666667h74.709334a32 32 0 0 1 4.352 63.744L736 938.666667h-448a32 32 0 0 1-4.352-63.701334l4.352-0.298666H362.666667v-106.581334H181.376a96 96 0 0 1-95.786667-89.429333l-0.213333-6.570667V224a96 96 0 0 1 89.429333-95.786667L181.333333 128H842.666667z m-245.376 640.085333h-170.666667L426.666667 874.666667h170.666666l-0.042666-106.581334zM842.624 192H181.418667a32 32 0 0 0-31.701334 27.648L149.333333 224v448.085333c0 16.213333 12.032 29.610667 27.648 31.701334l4.352 0.298666H842.666667a32 32 0 0 0 31.701333-27.648l0.298667-4.352V224a32 32 0 0 0-27.648-31.701333L842.666667 192zM789.546667 256a21.333333 21.333333 0 0 1 20.992 17.493333l0.341333 3.84v341.418667a21.333333 21.333333 0 0 1-17.493333 20.992l-3.84 0.341333H405.333333a21.333333 21.333333 0 0 1-20.992-17.493333L384 618.752V277.333333a21.333333 21.333333 0 0 1 17.493333-20.992L405.333333 256h384.170667zM320 256a21.333333 21.333333 0 0 1 20.992 17.493333L341.333333 277.333333v341.418667a21.333333 21.333333 0 0 1-17.493333 20.992l-3.84 0.341333h-85.333333a21.333333 21.333333 0 0 1-20.992-17.493333L213.333333 618.752V277.333333a21.333333 21.333333 0 0 1 17.493334-20.992L234.666667 256h85.333333z" p-id="5206" fill="#ffffff"></path></svg>