<?xml version="1.0" standalone="no"?><!DOCTYPE svg PUBLIC "-//W3C//DTD SVG 1.1//EN" "http://www.w3.org/Graphics/SVG/1.1/DTD/svg11.dtd"><svg t="1599270680405" class="icon" viewBox="0 0 1024 1024" version="1.1" xmlns="http://www.w3.org/2000/svg" p-id="21317" xmlns:xlink="http://www.w3.org/1999/xlink" width="32" height="32"><defs><style type="text/css"></style></defs><path d="M928.1 26.9c-4.9-4.9-24.8 7.1-30.4 12.7L31.3 906.1 49 923.8 915.4 57.4c5.7-5.7 17.6-25.6 12.7-30.5z" fill="#f2ceae" p-id="21318" data-spm-anchor-id="a313x.7781069.0.i5" class="selected"></path><path d="M701.4 884.1l-27.8 33.2c-5.5 6.6-15.4 7.5-22 1.9L249 581.8c-6.6-5.5-7.5-15.4-1.9-22l27.8-33.2c5.5-6.6 15.4-7.5 22-1.9L699.5 862c6.6 5.5 7.4 15.5 1.9 22.1z" fill="#74BD5A" p-id="21319"></path><path d="M614.8 965.4l-32.2 28.8c-6.4 5.7-16.4 5.2-22.1-1.2L210.4 601.4c-5.7-6.4-5.2-16.4 1.2-22.1l32.2-28.8c6.4-5.7 16.4-5.2 22.1 1.2L616 943.3c5.8 6.4 5.2 16.4-1.2 22.1z" fill="#74BD5A" p-id="21320"></path><path d="M672 947.1l-30.6 30.6c-6.1 6.1-16 6.1-22.1 0L224.4 582.8c-6.1-6.1-6.1-16 0-22.1l30.6-30.6c6.1-6.1 16-6.1 22.1 0L672 925c6.1 6 6.1 16 0 22.1zM860.8 702.3L833 735.4c-5.5 6.6-15.4 7.5-22 1.9L408.3 400c-6.6-5.5-7.5-15.4-1.9-22l27.8-33.2c5.5-6.6 15.4-7.5 22-1.9l402.6 337.4c6.6 5.5 7.5 15.4 2 22z" fill="#74BD5A" p-id="21321"></path><path d="M774.2 783.6L742 812.4c-6.4 5.7-16.4 5.2-22.1-1.2L369.7 419.6c-5.7-6.4-5.2-16.4 1.2-22.1l32.2-28.8c6.4-5.7 16.4-5.2 22.1 1.2l350.1 391.6c5.8 6.5 5.3 16.4-1.1 22.1z" fill="#74BD5A" p-id="21322"></path><path d="M675 586.8l156.4 156.4c6.1 6.1 6.1 16 0 22.1l-30.6 30.6c-6.1 6.1-16 6.1-22.1 0L383.7 401c-6.1-6.1-6.1-16 0-22.1l30.6-30.6c6.1-6.1 16-6.1 22.1 0L576 487.8l31.8 31.8" fill="#74BD5A" p-id="21323"></path><path d="M669.7 592.1l79.2 79.2 53.7 53.7 17.4 17.4c2.4 2.4 6 5 7.5 8.1 2.5 5-0.8 8.6-4.1 11.9L811 774.8l-12.9 12.9c-3.2 3.2-6.7 6.7-11.8 4.5-1.9-0.8-3.5-2.7-5-4.2l-7.9-7.9-72.9-72.9-111.3-111.3L477 483.7l-75.6-75.6c-4.1-4.1-8.5-8-12.4-12.4-7.1-8.1 4.2-15.8 9.4-21l14.3-14.3c2.4-2.4 4.8-5.4 7.5-7.5 6.2-4.8 11.1 0.8 15.1 4.9l17 17 54.1 54.1 75.2 75.2 20.7 20.7c6.8 6.8 17.4-3.8 10.6-10.6l-71.3-71.3-98.1-98.1c-9.2-9.2-23-11.9-33.5-2.8-8.1 7-15.3 15.2-22.9 22.8-2.9 2.9-5.9 5.7-8.7 8.7-7 7.5-9.1 18.8-3.8 28 1.7 2.8 3.9 5 6.2 7.3l59.7 59.7 109.1 109.1 118.2 118.2 86 86c6.1 6.1 12.1 12.2 18.2 18.2 6.6 6.5 15.7 9.8 24.7 6.7 5.3-1.8 8.9-5.4 12.8-9.2l14.1-14.1c8.9-8.9 21-17.7 19.4-31.9-0.9-7.9-5.7-12.8-10.9-18l-41.2-41.2-104-104-6.9-6.9c-6.6-6.7-17.2 3.9-10.3 10.7z" fill="#322915" p-id="21324"></path><path d="M632.9 544.8l15.2 15.2" fill="#74BD5A" p-id="21325"></path><path d="M627.6 550.1l15.2 15.2c6.8 6.8 17.4-3.8 10.6-10.6l-15.2-15.2c-6.8-6.9-17.4 3.7-10.6 10.6z" fill="#322915" p-id="21326"></path><path d="M1018 534.1l-27.8 33.2c-5.5 6.6-15.4 7.5-22 1.9L565.6 231.8c-6.6-5.5-7.5-15.4-1.9-22l27.8-33.2c5.5-6.6 15.4-7.5 22-1.9l402.6 337.4c6.6 5.5 7.5 15.4 1.9 22z" fill="#74BD5A" p-id="21327"></path><path d="M931.4 615.5l-32.2 28.8c-6.4 5.7-16.4 5.2-22.1-1.2L527 251.5c-5.7-6.4-5.2-16.4 1.2-22.1l32.2-28.8c6.4-5.7 16.4-5.2 22.1 1.2l350.1 391.6c5.8 6.4 5.3 16.3-1.2 22.1z" fill="#74BD5A" p-id="21328"></path><path d="M988.6 597.1L958 627.7c-6.1 6.1-16 6.1-22.1 0L541 232.8c-6.1-6.1-6.1-16 0-22.1l30.6-30.6c6.1-6.1 16-6.1 22.1 0L988.6 575c6.1 6.1 6.1 16.1 0 22.1z" fill="#74BD5A" p-id="21329"></path><path d="M57 407.7m-12 0a12 12 0 1 0 24 0 12 12 0 1 0-24 0Z" fill="#74BD5A" p-id="21330"></path><path d="M250.9 899.7m-24.1 0a24.1 24.1 0 1 0 48.2 0 24.1 24.1 0 1 0-48.2 0Z" fill="#74BD5A" p-id="21331"></path><path d="M945.1 929c-3.1 0-5.7-2.6-5.7-5.7V876c0-3.1 2.6-5.7 5.7-5.7s5.7 2.6 5.7 5.7v47.3c0 3.2-2.6 5.7-5.7 5.7z" fill="#51B340" p-id="21332"></path><path d="M974.5 899.7c0 3.1-2.6 5.7-5.7 5.7h-47.3c-3.1 0-5.7-2.6-5.7-5.7s2.6-5.7 5.7-5.7h47.3c3.1 0 5.7 2.5 5.7 5.7z" fill="#51B340" p-id="21333"></path><path d="M476.2 95.8c-3.1 0-5.7-2.6-5.7-5.7V42.8c0-3.1 2.6-5.7 5.7-5.7s5.7 2.6 5.7 5.7v47.3c0 3.1-2.5 5.7-5.7 5.7z" fill="#51B340" p-id="21334"></path><path d="M505.6 66.4c0 3.1-2.6 5.7-5.7 5.7h-47.3c-3.1 0-5.7-2.6-5.7-5.7s2.6-5.7 5.7-5.7h47.3c3.1 0 5.7 2.6 5.7 5.7z" fill="#51B340" p-id="21335"></path><path d="M97.8 26.9c1.7 0 3.1 1.4 3.1 3.1v12c0 1.7-1.4 3.1-3.1 3.1-1.7 0-3.1-1.4-3.1-3.1V29.9c0-1.7 1.4-3 3.1-3zM81.2 31.6c1.5-0.8 3.3-0.3 4.2 1.1l6 10.5c0.8 1.5 0.3 3.3-1.1 4.2-1.5 0.8-3.3 0.3-4.2-1.1l-6-10.5c-0.9-1.4-0.4-3.3 1.1-4.2zM69.2 44.1c0.8-1.5 2.7-2 4.2-1.1l10.5 6c1.5 0.8 2 2.7 1.1 4.2-0.8 1.5-2.7 2-4.2 1.1l-10.5-6c-1.4-0.9-1.9-2.8-1.1-4.2zM65 60.8c0-1.7 1.4-3.1 3.1-3.1h12.1c1.7 0 3.1 1.4 3.1 3.1 0 1.7-1.4 3.1-3.1 3.1H68.1c-1.7 0-3.1-1.4-3.1-3.1zM69.8 77.4c-0.8-1.5-0.3-3.3 1.1-4.2l10.5-6c1.5-0.8 3.3-0.3 4.2 1.1 0.8 1.5 0.3 3.3-1.1 4.2l-10.5 6c-1.5 0.9-3.4 0.4-4.2-1.1zM82.2 89.4c-1.5-0.8-2-2.7-1.1-4.2l6-10.5c0.8-1.5 2.7-2 4.2-1.1 1.5 0.8 2 2.7 1.1 4.2l-6 10.5c-0.8 1.5-2.7 2-4.2 1.1zM99 93.6c-1.7 0-3.1-1.4-3.1-3.1v-12c0-1.7 1.4-3.1 3.1-3.1 1.7 0 3.1 1.4 3.1 3.1v12.1c0 1.6-1.4 3-3.1 3zM115.6 88.8c-1.5 0.8-3.3 0.3-4.2-1.1l-6-10.5c-0.8-1.5-0.3-3.3 1.1-4.2 1.5-0.8 3.3-0.3 4.2 1.1l6 10.5c0.9 1.5 0.4 3.4-1.1 4.2zM127.6 76.4c-0.8 1.5-2.7 2-4.2 1.1l-10.5-6c-1.5-0.8-2-2.7-1.1-4.2 0.8-1.5 2.7-2 4.2-1.1l10.5 6c1.4 0.9 1.9 2.7 1.1 4.2zM131.8 59.6c0 1.7-1.4 3.1-3.1 3.1h-12.1c-1.7 0-3.1-1.4-3.1-3.1 0-1.7 1.4-3.1 3.1-3.1h12.1c1.7 0.1 3.1 1.5 3.1 3.1zM127 43c0.8 1.5 0.3 3.3-1.1 4.2l-10.5 6c-1.5 0.8-3.3 0.3-4.2-1.1-0.8-1.5-0.3-3.3 1.1-4.2l10.5-6c1.5-0.8 3.4-0.3 4.2 1.1zM114.6 31c1.5 0.8 2 2.7 1.1 4.2l-6 10.5c-0.8 1.5-2.7 2-4.2 1.1-1.5-0.8-2-2.7-1.1-4.2l6-10.5c0.8-1.4 2.7-1.9 4.2-1.1z" fill="#51B340" p-id="21336"></path></svg>