<?xml version="1.0" standalone="no"?><!DOCTYPE svg PUBLIC "-//W3C//DTD SVG 1.1//EN" "http://www.w3.org/Graphics/SVG/1.1/DTD/svg11.dtd"><svg t="1597332279876" class="icon" viewBox="0 0 1024 1024" version="1.1" xmlns="http://www.w3.org/2000/svg" p-id="46997" xmlns:xlink="http://www.w3.org/1999/xlink" width="14" height="14"><defs><style type="text/css"></style></defs><path d="M493.504 558.144a31.904 31.904 0 0 0 45.28 0l308.352-308.352a31.968 31.968 0 1 0-45.248-45.248L516.16 490.272 221.984 196.128a31.968 31.968 0 1 0-45.248 45.248l316.768 316.768z" p-id="46998" fill="#03b910"></path><path d="M801.888 460.576L516.16 746.304 222.016 452.16a31.968 31.968 0 1 0-45.248 45.248l316.768 316.768a31.904 31.904 0 0 0 45.28 0l308.352-308.352a32 32 0 1 0-45.28-45.248z" p-id="46999" fill="#03b910"></path></svg>