<?xml version="1.0" standalone="no"?><!DOCTYPE svg PUBLIC "-//W3C//DTD SVG 1.1//EN" "http://www.w3.org/Graphics/SVG/1.1/DTD/svg11.dtd"><svg t="1597332519440" class="icon" viewBox="0 0 1024 1024" version="1.1" xmlns="http://www.w3.org/2000/svg" p-id="13378" xmlns:xlink="http://www.w3.org/1999/xlink" width="32" height="32"><defs><style type="text/css"></style></defs><path d="M859.648 452.608c-38.912-51.2-90.112-94.208-146.944-123.904 25.088-24.576 38.4-54.272 38.4-84.992 0-21.504-6.656-43.008-19.456-62.464-11.776-17.92-28.16-33.792-48.64-47.104-40.448-26.624-93.696-40.96-149.504-40.96S424.96 107.52 384.512 133.632c-20.48 13.312-36.864 29.184-48.64 47.104-12.8 19.456-19.456 40.448-19.456 62.464 0 31.232 13.824 60.928 38.912 85.504-14.336 7.68-28.16 15.872-41.984 25.088-12.288 8.192-15.872 25.088-7.168 37.888 8.192 12.288 25.088 15.872 37.888 7.168 23.552-15.872 48.64-29.184 74.24-39.424 9.728-3.584 16.384-12.8 17.408-23.552 0.512-10.24-4.608-20.48-13.824-25.6-32.256-17.92-50.688-42.496-50.688-67.584 0-23.04 15.36-45.568 43.52-64 31.744-20.992 74.24-32.256 119.808-32.256s88.064 11.264 119.808 32.256c28.16 18.432 43.52 40.96 43.52 64 0 24.576-18.432 49.152-50.688 67.072-9.216 5.12-14.336 15.36-13.824 25.6 0.512 10.24 7.68 19.456 17.408 23.552 118.272 46.08 237.056 166.4 237.056 331.264 0 56.32-27.648 108.032-77.312 145.92-62.464 47.104-157.696 72.192-275.968 72.192-118.272 0-213.504-25.088-275.968-72.192-50.176-37.888-77.312-89.6-77.312-145.92 0-53.76 13.312-105.984 39.424-155.136 7.168-13.312 2.048-29.696-11.264-36.864-13.312-7.168-29.696-2.048-36.864 11.264-30.208 56.832-45.568 117.76-45.568 180.736 0 73.728 35.328 140.8 99.328 188.928 34.816 26.112 77.312 46.592 126.976 60.416 53.248 14.848 114.176 22.528 181.248 22.528s128.512-7.68 181.248-22.528c49.664-13.824 92.16-34.304 126.976-60.416 64-48.128 99.328-115.712 99.328-189.44-0.512-84.48-28.672-166.912-82.432-237.056z" fill="#4E8CEE" p-id="13379"></path><path d="M233.984 462.848c5.12 4.608 11.776 7.168 18.432 7.168 7.168 0 14.848-3.072 19.968-8.704 5.632-6.144 11.264-11.776 16.896-17.408 10.752-10.24 10.752-27.648 0.512-38.4-10.24-10.752-27.648-10.752-38.4-0.512-6.656 6.656-13.312 13.312-19.456 19.968-10.24 10.752-9.216 28.16 2.048 37.888z m163.84 174.08c-14.848 0-27.136 12.288-27.136 27.136s12.288 27.136 27.136 27.136h108.544v81.92c0 14.848 12.288 27.136 27.136 27.136s27.136-12.288 27.136-27.136v-81.92h108.544c14.848 0 27.136-12.288 27.136-27.136s-12.288-27.136-27.136-27.136h-108.544v-54.272h108.544c14.848 0 27.136-12.288 27.136-27.136s-12.288-27.136-27.136-27.136H599.04L661.504 465.92c10.752-10.752 10.752-27.648 0-38.4-10.752-10.752-27.648-10.752-38.4 0L534.016 517.12 443.392 426.496c-10.752-10.752-27.648-10.752-38.4 0-10.752 10.752-10.752 27.648 0 38.4l63.488 64H397.824c-14.848 0-27.136 12.288-27.136 27.136s12.288 27.136 27.136 27.136h108.544v54.272l-108.544-0.512z" fill="#BAD4FF" p-id="13380"></path><path d="M99.328 640v270.336M355.328 440.832v469.504M625.664 910.336v-327.168M867.328 398.336v512" fill="#FFFFFF" p-id="13381"></path><path d="M30.72 713.728a268.8 260.096 90 1 0 520.192 0 268.8 260.096 90 1 0-520.192 0Z" fill="#02285E" p-id="13382"></path><path d="M470.528 808.448c-7.68 9.728-14.336 18.432-19.456 26.112-22.016-10.24-42.496-23.04-60.928-37.376v19.968H304.128v37.376h140.8v23.552H136.704v-23.552h140.8v-37.376h-87.04v-19.456c-18.944 15.872-38.912 29.696-59.904 41.472-4.608-6.656-10.752-13.824-18.944-22.528 36.864-17.92 69.12-40.96 95.744-68.608h-92.16v-23.552h71.68v-120.832H126.976v-23.552h60.416v-38.912h27.136v38.912H368.64v-38.912h27.136v38.912h60.416v23.552H395.776v120.832h70.656v23.552H371.712c27.136 26.624 59.904 47.104 98.816 60.416z m-193.024-49.152h27.136v34.816h82.432c-17.408-13.824-32.768-29.184-47.104-46.592H240.64c-14.848 16.896-30.72 32.768-46.592 46.592h83.456v-34.816z m-62.976-130.048H368.64V604.16H214.528v25.088z m0 47.104H368.64v-25.088H214.528v25.088z m0 48.128H368.64v-25.6H214.528v25.6z" fill="#FFFFFF" p-id="13383"></path></svg>