<?xml version="1.0" standalone="no"?><!DOCTYPE svg PUBLIC "-//W3C//DTD SVG 1.1//EN" "http://www.w3.org/Graphics/SVG/1.1/DTD/svg11.dtd"><svg t="1599270265421" class="icon" viewBox="0 0 1024 1024" version="1.1" xmlns="http://www.w3.org/2000/svg" p-id="16991" xmlns:xlink="http://www.w3.org/1999/xlink" width="32" height="32"><defs><style type="text/css"></style></defs><path d="M533.344 21.354v-0.016c0-11.782-9.562-21.328-21.344-21.328s-21.344 9.546-21.344 21.328v981.31c0 11.782 9.562 21.344 21.344 21.344s21.344-9.562 21.344-21.344V21.354z" fill="#F4BE8E" p-id="16992"></path><path d="M320.004 725.308h383.992v213.34H320.004z" fill="#FECD57" p-id="16993"></path><path d="M661.342 725.308h42.654v213.34h-42.654z" fill="#FFFFFF" opacity=".2" p-id="16994"></path><path d="M691.246 641.808c-0.032-0.032-0.092-0.062-0.154-0.094a1.472 1.472 0 0 1-0.218-0.094c-7-2.998-91.124-37.342-186.624-0.188-80.654 31.406-153.654 0.624-154.404 0.312a21.326 21.326 0 0 0-8.5-1.75c-11.78 0-21.342 9.562-21.342 21.312a21.3 21.3 0 0 0 12.75 19.532v0.032c0.032 0 0.092 0.032 0.156 0.062 0.062 0 0.156 0.062 0.218 0.062 4.594 2 42.188 17.376 94.342 17.376 27.592 0 59.248-4.312 92.28-17.188 80.654-31.376 153.654-0.624 154.342-0.312v-0.032c2.624 1.156 5.532 1.812 8.562 1.812 11.78 0 21.342-9.532 21.342-21.344 0-8.716-5.25-16.184-12.75-19.498z" fill="#9ED36A" p-id="16995"></path><path d="M448 810.65c0 11.782-9.562 21.344-21.342 21.344-11.782 0-21.312-9.562-21.312-21.344s9.532-21.344 21.312-21.344c11.78 0 21.342 9.564 21.342 21.344zM533.344 853.304c0 11.812-9.562 21.344-21.344 21.344s-21.344-9.532-21.344-21.344c0-11.75 9.562-21.31 21.344-21.31s21.344 9.56 21.344 21.31zM618.654 810.65c0 11.782-9.532 21.344-21.312 21.344s-21.344-9.562-21.344-21.344 9.562-21.344 21.344-21.344 21.312 9.564 21.312 21.344z" fill="#F5BA45" p-id="16996"></path><path d="M639.998 469.328H384.002c-35.342 0-63.998 28.656-63.998 64 0 35.358 28.656 63.982 63.998 63.982h255.996c35.344 0 63.998-28.624 63.998-63.982 0-35.344-28.654-64-63.998-64z" fill="#965353" p-id="16997"></path><path d="M639.998 469.328h-42.656c35.344 0 64 28.656 64 64 0 35.358-28.656 63.982-64 63.982h42.656c35.344 0 63.998-28.624 63.998-63.982 0-35.344-28.654-64-63.998-64z" fill="#FFFFFF" opacity=".1" p-id="16998"></path><path d="M512 256.004c-106.03 0-191.996 85.952-191.996 191.996h383.992c0-106.044-85.966-191.996-191.996-191.996z" fill="#EC5564" p-id="16999"></path><path d="M512 256.004c-7.218 0-14.344 0.406-21.344 1.17 95.998 10.624 170.686 92 170.686 190.826h42.654c0-106.044-85.966-191.996-191.996-191.996z" fill="#FFFFFF" opacity=".2" p-id="17000"></path></svg>