<?xml version="1.0" standalone="no"?><!DOCTYPE svg PUBLIC "-//W3C//DTD SVG 1.1//EN" "http://www.w3.org/Graphics/SVG/1.1/DTD/svg11.dtd"><svg t="1599049687461" class="icon" viewBox="0 0 1024 1024" version="1.1" xmlns="http://www.w3.org/2000/svg" p-id="7450" width="48" height="48" xmlns:xlink="http://www.w3.org/1999/xlink"><defs><style type="text/css"></style></defs><path d="M236.8 908.8c0 19.2-12.8 32-32 32s-32-12.8-32-32v-147.2l-64 64v115.2c0 32 25.6 64 64 64h64c32 0 64-25.6 64-64V640l-64 64v204.8zM480 115.2c0-19.2 12.8-32 32-32s32 12.8 32 32v288l57.6 57.6 6.4-6.4V83.2c0-32-25.6-64-64-64h-64c-32 0-64 25.6-64 64v192l64 64V115.2zM172.8 307.2c0-19.2 12.8-32 32-32s32 12.8 32 32v83.2l64-64v-51.2c0-32-25.6-64-64-64h-64c-32 0-64 25.6-64 64V512l64-64V307.2zM544 704v204.8c0 19.2-12.8 32-32 32s-32-12.8-32-32v-262.4l-64-57.6v352c0 32 25.6 64 64 64h64c32 0 64-25.6 64-64v-204.8l-12.8 12.8-51.2-44.8zM851.2 512l-121.6 108.8v320c0 32 25.6 64 64 64h64c32 0 64-25.6 64-64V576c-12.8-38.4-38.4-64-70.4-64z m0 396.8c0 19.2-12.8 32-32 32s-32-12.8-32-32V601.6c0-19.2 12.8-32 32-32s32 12.8 32 32v307.2z" p-id="7451" fill="#707070"></path><path d="M774.4 204.8l89.6 96-262.4 256L384 345.6 12.8 716.8v128L384 467.2l204.8 198.4 326.4-320 96 96V204.8z" p-id="7452" fill="#707070"></path></svg>