<?xml version="1.0" standalone="no"?><!DOCTYPE svg PUBLIC "-//W3C//DTD SVG 1.1//EN" "http://www.w3.org/Graphics/SVG/1.1/DTD/svg11.dtd"><svg t="1599235145381" class="icon" viewBox="0 0 1024 1024" version="1.1" xmlns="http://www.w3.org/2000/svg" p-id="17241" xmlns:xlink="http://www.w3.org/1999/xlink" width="32" height="32"><defs><style type="text/css"></style></defs><path d="M920.8 817.7c-21.4 21.3-49.3 32-77.3 32-0.1 27.9-10.8 55.9-32.1 77.3-21.5 21.4-49.4 32.1-77.5 32.1-28 0-56.1-10.7-77.4-32.1-40.2-40.1-42.7-103.8-7.2-146.8l-69.7-69.6-11.6 1.9c-17.4 4.8-35.6 7.3-54.5 7.3-66.5 0-125.8-31.6-163.5-80.6C191.6 639 63.3 510.7 63.3 352.4c0-158.5 128.4-287 286.8-287 157 0 284.5 126.1 286.8 282.5 50.4 37.8 82.9 97.7 82.9 165.4 0 25.2-4.5 49.3-12.8 71.6l69 68.9c19.6-15.4 43.5-23.2 67.4-23.2 28 0 56 10.7 77.4 32.1 42.7 42.9 42.7 112.2 0 155z" fill="#E43B33" p-id="17242"></path><path d="M733.9 939.1c-23.9 0-46.4-9.3-63.2-26.2a89.686 89.686 0 0 1-26.2-59.1c-1-22.2 6.1-43.8 20.2-60.9l11.6-14-92.5-92.4-11.7 3.9c-18.8 6.3-38.6 9.5-58.6 9.5-58.2 0-112-26.5-147.7-72.8l-6-7.8H350c-71.2-0.1-138.2-27.9-188.5-78.2-50.3-50.4-78.1-117.3-78.1-188.5 0-71.3 27.8-138.4 78.2-188.8S279 85.6 350.3 85.6c70.6 0 137.1 27.3 187.4 76.8 50.2 49.5 78.4 115.5 79.4 186l0.1 9.8 7.9 5.9c22.8 17.1 41.6 39.4 54.5 64.6 13.5 26.4 20.3 54.9 20.3 84.8 0 22.3-3.9 44-11.6 64.6l-4.5 12.1 90.7 90.5 13.9-11c15.5-12.2 35.1-18.9 55.1-18.9 23.9 0 46.4 9.3 63.2 26.2 34.8 35 34.8 91.9-0.1 126.7-16.9 16.9-39.3 26.2-63.1 26.2h-20v20c-0.1 23.8-9.4 46.3-26.3 63.2-16.9 16.6-39.5 26-63.3 26z" fill="#F96864" p-id="17243"></path><path d="M906.6 803.3c-16.9 16.9-39.3 26.2-63.1 26.2h-20v20c-0.1 23.8-9.4 46.3-26.3 63.2-17 16.9-39.5 26.2-63.4 26.2s-46.4-9.3-63.2-26.2a89.686 89.686 0 0 1-26.2-59.1c-1-22.2 6.1-43.8 20.2-60.9l11.6-14-91.4-91.3c44.7-17.8 80.6-52.9 99.3-97.1l90.3 90.1 13.9-11c15.5-12.2 35.1-18.9 55-18.9 23.9 0 46.4 9.3 63.3 26.2 34.8 34.9 34.8 91.7 0 126.6z" fill="#FFFFFF" p-id="17244"></path><path d="M705.2 587.1c-2.3 4-5.4 9-9.3 14.8l-0.1 0.1c-5.6 8.5-12.9 18.5-21.8 29.4-17 20.8-42.8 47.5-76.4 68.7l-0.1 0.1c-5.8 3.6-11.8 7.1-18 10.3l-11.6 1.9c-2.2-1-4.2-2.7-5.2-5.1-2.2-4.9-0.1-10.6 4.7-13 4-2 8-4.1 11.9-6.4 59.5-34.2 96.5-90.2 108.8-111 0.4-0.6 0.8-1.2 1.2-1.7 3-3.2 7.8-4.2 11.9-2.1 5.1 2.6 7 9 4 14z" fill="#E43B33" p-id="17245"></path><path d="M498.3 271.7c-4.8 2.4-10.6 0.6-13.2-4.1-21.6-39.2-54.3-70.1-94.3-89.3-7.5-3.6-7.5-14.2-0.1-17.9 2.8-1.4 6-1.4 8.8 0 42.3 20.4 78.8 53.7 103 97.5 2.8 5 0.9 11.3-4.2 13.8z" fill="#FFFFFF" p-id="17246"></path></svg>