<?xml version="1.0" standalone="no"?><!DOCTYPE svg PUBLIC "-//W3C//DTD SVG 1.1//EN" "http://www.w3.org/Graphics/SVG/1.1/DTD/svg11.dtd"><svg t="1599235115128" class="icon" viewBox="0 0 1024 1024" version="1.1" xmlns="http://www.w3.org/2000/svg" p-id="13189" xmlns:xlink="http://www.w3.org/1999/xlink" width="32" height="32"><defs><style type="text/css"></style></defs><path d="M327.68 748.307692l-84.283077 73.255385a66.953846 66.953846 0 0 1 9.452308 8.664615A78.769231 78.769231 0 1 1 118.153846 875.913846a78.769231 78.769231 0 1 1 2.363077-157.538461 78.769231 78.769231 0 0 1 57.501539 25.993846 97.673846 97.673846 0 0 1 7.483076 10.24l83.495385-75.618462" fill="#FFE083" p-id="13190"></path><path d="M196.923077 981.070769a98.067692 98.067692 0 0 1-74.830769-31.901538 96.886154 96.886154 0 0 1-24.812308-55.532308A98.067692 98.067692 0 0 1 118.153846 699.470769a97.673846 97.673846 0 0 1 66.56 27.569231l68.135385-61.833846 26.387692 29.538461L179.2 787.692308l-12.209231-20.086154a44.504615 44.504615 0 0 0-5.907692-8.270769A57.895385 57.895385 0 0 0 118.153846 738.855385a58.683077 58.683077 0 1 0 0 118.153846h19.692308v21.267692a57.501538 57.501538 0 0 0 14.966154 44.504615 58.683077 58.683077 0 0 0 83.101538 3.938462 56.713846 56.713846 0 0 0 19.298462-39.384615 58.683077 58.683077 0 0 0-15.36-42.535385l-6.695385-5.907692-20.48-15.753846L315.076923 731.372308l26.387692 29.538461-69.316923 61.44a98.461538 98.461538 0 0 1 20.873846 65.378462 97.28 97.28 0 0 1-32.295384 67.741538 95.704615 95.704615 0 0 1-63.803077 25.6z" fill="#401100" p-id="13191"></path><path d="M259.938462 680.566154C220.553846 630.153846 604.16-110.670769 916.086154 236.307692s-362.338462 576.984615-554.535385 551.384616c-32.689231-39.384615-74.436923-76.012308-101.612307-107.126154z" fill="#F89727" p-id="13192"></path><path d="M400.147692 787.692308a285.932308 285.932308 0 0 1-61.833846-5.513846h-6.301538l-35.052308-39.384616-63.803077-70.892308c-39.384615-49.624615 88.615385-390.695385 262.301539-536.024615 93.735385-78.769231 239.064615-136.664615 397.390769 39.384615 137.846154 152.812308 115.790769 275.692308 72.861538 348.553847C866.461538 695.926154 567.926154 787.692308 400.147692 787.692308zM354.461538 745.156923c139.027692 24.024615 478.129231-67.741538 578.166154-242.215385 52.775385-92.553846 29.932308-194.166154-68.135384-302.867692s-196.923077-129.969231-302.08-64.984615c-189.44 118.153846-312.32 465.92-296.566154 512 21.267692 24.024615 39.384615 44.898462 62.227692 68.923077z" fill="#401100" p-id="13193"></path><path d="M582.104615 285.932308m-29.144615 0a29.144615 29.144615 0 1 0 58.289231 0 29.144615 29.144615 0 1 0-58.289231 0Z" fill="#FFE083" p-id="13194"></path><path d="M635.273846 415.113846m-29.144615 0a29.144615 29.144615 0 1 0 58.289231 0 29.144615 29.144615 0 1 0-58.289231 0Z" fill="#FFE083" p-id="13195"></path><path d="M771.938462 326.104615m-29.144616 0a29.144615 29.144615 0 1 0 58.289231 0 29.144615 29.144615 0 1 0-58.289231 0Z" fill="#FFE083" p-id="13196"></path><path d="M721.92 487.187692m-29.144615 0a29.144615 29.144615 0 1 0 58.28923 0 29.144615 29.144615 0 1 0-58.28923 0Z" fill="#FFE083" p-id="13197"></path><path d="M493.095385 428.898462m-29.144616 0a29.144615 29.144615 0 1 0 58.289231 0 29.144615 29.144615 0 1 0-58.289231 0Z" fill="#FFE083" p-id="13198"></path></svg>