<?xml version="1.0" standalone="no"?><!DOCTYPE svg PUBLIC "-//W3C//DTD SVG 1.1//EN" "http://www.w3.org/Graphics/SVG/1.1/DTD/svg11.dtd"><svg t="1599234989218" class="icon" viewBox="0 0 1024 1024" version="1.1" xmlns="http://www.w3.org/2000/svg" p-id="5185" width="32" height="32" xmlns:xlink="http://www.w3.org/1999/xlink"><defs><style type="text/css"></style></defs><path d="M739.724109 626.54999s-11.783091-149.581754-184.86047-158.119204c-58.986013 0-164.53993 30.974712-167.785571 167.785572h352.646041V626.54999z" fill="#F4C323" p-id="5186"></path><path d="M707.549921 646.941087c-0.070557-0.28223-6.914628-28.646317-25.330118-58.844897-24.060084-39.371047-55.599256-63.290016-93.700269-70.980776-16.228209-2.822297-53.129746-3.386757-89.114035 12.065321-43.110591 18.556604-70.063529 53.341418-80.082685 103.366636l-20.743885-4.162888c6.138497-30.692483 18.203817-56.798732 35.98429-77.613175 15.028733-17.639358 34.008682-31.468614 56.445945-41.064425 40.64108-17.498243 82.763867-16.722111 101.249914-13.476469l0.28223 0.070558c24.483429 4.93902 46.920692 15.734307 66.676772 32.244746 15.593192 12.982567 29.563564 29.493006 41.417212 49.037414 20.03831 33.020878 27.235168 63.148901 27.587956 64.418935l-20.673327 4.93902z" fill="#704A21" p-id="5187"></path><path d="M686.664921 650.821746c-0.070557-0.211672-10.301385-24.271756-30.904155-47.696824-26.670709-30.339695-57.433749-45.650658-91.583546-45.650658h-0.635016c-86.009509 0.493902-125.098326 74.508647-126.791704 82.834425l-20.743885-4.162889c1.975608-9.948598 15.593192-34.714256 38.524357-56.163715 21.167229-19.756081 57.222077-43.39282 108.940674-43.745607h0.776132c40.147178 0 77.47206 18.41549 107.95287 53.341418 22.719493 26.035692 33.655895 51.930269 34.149796 53.059188l-19.685523 8.184662z" fill="#704A21" p-id="5188"></path><path d="M660.135327 651.174533c-0.493902-0.564459-48.61407-58.562668-101.602701-54.258664h-0.141115c-51.154138 3.598429-83.681113 35.067043-88.055674 46.991249l-19.897196-7.267416c4.445118-12.135878 17.5688-26.10625 35.208158-37.465996 14.675946-9.454696 38.947702-21.167229 71.192449-23.425067 64.066148-5.150692 117.407566 59.268242 119.665403 62.019982l-16.369324 13.405912z" fill="#704A21" p-id="5189"></path><path d="M53.764763 632.265142s17.709915-225.219321 278.278509-238.060774c88.761249 0 247.727141 46.638462 252.525046 252.525047H53.764763v-14.464273z" fill="#F4C323" p-id="5190"></path><path d="M96.945911 650.468959l-20.532213-5.150693c0.423345-1.763936 11.148074-43.67505 40.92331-89.890167 17.5688-27.235168 38.17157-50.307448 61.243851-68.511266 28.999104-22.931165 61.878867-38.242128 97.792599-45.438986l0.28223-0.070557c17.5688-3.03397 40.782195-3.598429 63.642803-1.411149 30.551368 2.822297 59.409357 10.019155 85.727279 21.378902 33.020878 14.182044 60.961621 34.502584 83.046097 60.397161 26.176807 30.692483 43.95728 69.146283 52.98863 114.444154l-20.743884 4.162888C525.935093 563.118859 484.376766 509.424654 417.699993 480.778337c-55.387584-23.777854-112.327431-22.860608-137.304761-18.556605C221.338662 474.145938 172.512919 509.212981 135.470268 566.364501c-28.0113 43.322263-38.4538 83.751671-38.524357 84.104458z" fill="#704A21" p-id="5191"></path><path d="M128.55564 654.137945l-19.262179-8.819679c0.705574-1.481706 16.863226-36.619307 50.660236-71.96858 19.967753-20.885 41.911114-37.536553 65.265624-49.460759 28.999104-14.817061 60.256046-22.296148 92.783022-22.296148h1.270033c76.131468 0.423345 129.190657 35.278716 160.306484 64.418935 33.655895 31.468614 53.55309 67.311789 56.375388 81.634948l-20.743885 4.162888c-1.270034-6.350169-16.369324-38.806587-50.095776-70.345759-28.364087-26.529594-76.695928-58.280438-145.983325-58.703783h-1.128919c-53.200303 0-101.108799 21.731689-142.243782 64.701165-31.539172 32.809206-47.061807 66.323985-47.202921 66.676772z" fill="#704A21" p-id="5192"></path><path d="M464.19734 656.536898c-3.739544-10.301385-18.344932-27.658513-42.405016-43.181148-19.473851-12.559223-51.789155-28.081858-94.75863-31.115827h-0.141115C243.987597 575.536967 176.464136 653.926273 175.758561 654.772962l-16.157651-13.688141c0.776132-0.917247 18.909392-22.155033 48.61407-42.687246 39.794391-27.517398 81.352718-40.358851 120.30042-37.254324 47.414594 3.316199 83.116654 20.532212 104.636671 34.432026 25.189003 16.228209 44.733411 36.830979 50.871908 53.764763l-19.826639 7.196858z" fill="#704A21" p-id="5193"></path><path d="M34.220354 646.729415a254.006753 254.006753 0 0 0-5.080135 50.519121c0 140.691518 115.07917 255.770688 255.770688 255.770688h218.798595c140.691518 0 255.770688-115.07917 255.770688-255.770688 0-17.286571-1.763936-34.220354-5.080135-50.519121H34.220354z" fill="#FFFFFF" p-id="5194"></path><path d="M503.709502 963.602839H284.910907c-35.772618 0-70.627989-7.055743-103.437194-21.026115-31.680287-13.476469-60.185489-32.738648-84.668917-57.222076-24.483429-24.483429-43.745607-52.988631-57.222077-84.668918-13.970371-32.809206-21.026115-67.664577-21.026115-103.437194 0-17.639358 1.763936-35.349273 5.291808-52.635844l1.693378-8.466892h737.466272l1.693378 8.466892c3.527872 17.286571 5.291807 34.996486 5.291807 52.635844 0 35.772618-7.055743 70.627989-21.026114 103.437194-13.476469 31.680287-32.738648 60.185489-57.222077 84.668918-24.483429 24.483429-52.988631 43.745607-84.668917 57.222076-32.738648 13.970371-67.594019 21.026115-103.366637 21.026115zM43.040033 657.31303c-2.18728 13.19424-3.316199 26.600152-3.316199 39.935506 0 135.188038 109.999035 245.187074 245.187073 245.187073h218.798595c135.188038 0 245.187074-109.999035 245.187073-245.187073 0-13.335355-1.128919-26.741266-3.316199-39.935506H43.040033z" fill="#704A21" p-id="5195"></path><path d="M31.821402 731.045545h716.722386v21.16723H31.821402z" fill="#704A21" p-id="5196"></path><path d="M991.261352 124.392751l-505.96734 52.212499c-0.423345 0.070557-0.776132 0.423345-0.776131 0.917247l2.681182 25.965135c0.070557 0.423345 0.423345 0.776132 0.917247 0.776132l505.967339-52.2125c0.423345-0.070557 0.776132-0.423345 0.776132-0.917246l-2.681183-25.965135c-0.070557-0.493902-0.423345-0.776132-0.917246-0.776132zM991.261352 204.828223l-505.96734 52.212499c-0.423345 0.070557-0.776132 0.423345-0.776131 0.917247l2.681182 25.965134c0.070557 0.423345 0.423345 0.776132 0.917247 0.776132l505.967339-52.212499c0.423345-0.070557 0.776132-0.423345 0.776132-0.917247l-2.681183-25.965134c-0.070557-0.493902-0.423345-0.776132-0.917246-0.776132z" fill="#6C4820" p-id="5197"></path><path d="M673.541239 141.18542s-0.776132 1.481706-2.116723 4.304003c-1.340591 2.822297-3.175084 6.985186-5.432922 12.276993-2.18728 5.291807-4.727348 11.783091-7.337973 19.332736s-5.22125 16.087094-7.620203 25.471233c-0.28223 1.199476-0.564459 2.328395-0.846689 3.598429-0.28223 1.199476-0.564459 2.398953-0.846689 3.668987-0.564459 2.46951-1.058361 4.93902-1.622821 7.479087-0.493902 2.540068-0.987804 5.150692-1.481706 7.761318-0.423345 2.681182-0.846689 5.291807-1.270034 8.043547-1.552263 10.865844-2.46951 22.366706-2.540067 34.220354v4.445118c0.070557 1.481706 0.141115 2.963412 0.141115 4.515676 0 0.776132 0.070557 1.481706 0.070557 2.257838s0.070557 1.481706 0.070557 2.257837c0.070557 1.481706 0.211672 3.03397 0.28223 4.515676 0.141115 3.03397 0.564459 6.067939 0.917247 9.101909l0.211672 2.257837 0.352787 2.257838c0.211672 1.552263 0.423345 3.03397 0.635017 4.586233 0.211672 1.552263 0.493902 3.03397 0.776132 4.586233 0.28223 1.552263 0.564459 3.03397 0.846689 4.586233 0.28223 1.552263 0.705574 3.03397 1.058361 4.515676 0.352787 1.481706 0.705574 3.03397 1.058362 4.515676l0.141115 0.564459 0.070557 0.28223-0.141115-0.423345 0.070558 0.141115 0.352787 1.199476 0.776132 2.328396 1.481706 4.797905c0.987804 3.245642 1.905051 6.420726 2.822297 9.666368 1.834493 6.420726 3.598429 12.91201 5.150692 19.403294 1.622821 6.491284 3.104527 12.982567 4.445119 19.403293 0.705574 3.245642 1.340591 6.420726 1.975608 9.666368 0.564459 3.245642 1.199476 6.420726 1.693378 9.595811 1.128919 6.350169 2.116723 12.700338 2.892855 18.979949 1.693378 12.488665 2.681182 24.624544 3.175084 36.195962 0.070557 2.892855 0.211672 5.715152 0.211672 8.537449s0.141115 5.574037 0 8.325777c-0.070557 2.75174-0.070557 5.432922-0.211672 8.043547-0.141115 2.610625-0.141115 5.22125-0.352787 7.761318-0.352787 5.080135-0.776132 9.87804-1.340591 14.464273-0.352787 2.257838-0.635017 4.515676-0.917247 6.702956-0.352787 2.18728-0.705574 4.233446-1.058361 6.279612-1.552263 8.043547-3.245642 15.028733-5.150693 20.60277-0.423345 1.411149-0.846689 2.75174-1.270033 3.951216-0.493902 1.199476-0.917247 2.398953-1.270034 3.457314-0.423345 1.058361-0.776132 2.046166-1.128919 2.963412-0.352787 0.917247-0.776132 1.693378-1.058362 2.398953-1.270034 2.822297-1.975608 4.374561-1.975608 4.37456s0.28223-1.622821 0.776132-4.727348a95.12694 95.12694 0 0 0 0.846689-5.644594c0.141115-1.128919 0.352787-2.328395 0.493902-3.598429 0.141115-1.270034 0.28223-2.610625 0.423345-4.021774 0.635017-5.715152 0.987804-12.62978 1.128919-20.532212 0.141115-7.902432-0.070557-16.863226-0.776132-26.600152-0.141115-2.398953-0.352787-4.93902-0.564459-7.40853-0.211672-2.540068-0.493902-5.080135-0.776132-7.69076-0.28223-2.610625-0.564459-5.291807-0.917247-7.97299-0.28223-2.681182-0.705574-5.432922-1.058361-8.184662-1.552263-11.077517-3.457314-22.648935-5.78571-34.573141-1.199476-5.997382-2.398953-12.065321-3.810101-18.13326-0.635017-3.03397-1.411149-6.138497-2.116723-9.243023s-1.481706-6.209054-2.18728-9.313581c-1.481706-6.209054-3.104527-12.488665-4.727348-18.768277-1.693378-6.279611-3.386757-12.559223-5.150693-18.768277-0.917247-3.104527-1.763936-6.279611-2.681182-9.384138l-1.411149-4.656791-0.705574-2.328395-0.352787-1.199476-0.070558-0.141115c-0.352787-1.199476-0.141115-0.423345-0.211672-0.705574l-0.070557-0.28223-0.141115-0.635017c-0.705574-3.386757-1.552263-6.773513-2.116723-10.16027l-0.846689-5.080135c-0.28223-1.693378-0.564459-3.386757-0.705575-5.080135-0.211672-1.693378-0.423345-3.386757-0.564459-5.080135l-0.28223-2.540068-0.141115-2.540067c-0.211672-3.386757-0.493902-6.702956-0.493902-10.089713 0-1.693378-0.070557-3.316199-0.070557-5.009578v-2.46951c0-0.846689 0-1.622821 0.070557-2.46951 0.070557-1.622821 0.070557-3.245642 0.141115-4.93902 0.070557-1.622821 0.211672-3.245642 0.352787-4.868463 0.846689-12.91201 2.892855-25.189003 5.715152-36.548749 2.75174-11.430304 6.350169-21.872804 10.089713-31.3275 3.810101-9.384138 7.831875-17.780473 11.783091-24.97733s7.761317-13.19424 11.077517-18.062703c3.316199-4.868463 6.138497-8.466892 8.114104-10.936401 1.905051-2.257838 3.03397-3.527872 3.03397-3.527872zM606.017777 141.18542s-0.776132 1.481706-2.116723 4.304003c-1.340591 2.822297-3.175084 6.985186-5.432922 12.276993-2.18728 5.291807-4.727348 11.783091-7.337973 19.332736s-5.22125 16.087094-7.620202 25.471233c-0.28223 1.199476-0.564459 2.328395-0.84669 3.598429-0.28223 1.199476-0.564459 2.398953-0.846689 3.668987-0.564459 2.46951-1.058361 4.93902-1.622821 7.479087-0.493902 2.540068-0.987804 5.150692-1.481706 7.761318-0.423345 2.681182-0.846689 5.291807-1.270033 8.043547-1.552263 10.865844-2.46951 22.366706-2.540068 34.220354v4.445118c0.070557 1.481706 0.141115 2.963412 0.141115 4.515676 0 0.776132 0.070557 1.481706 0.070557 2.257838s0.070557 1.481706 0.070558 2.257837c0.070557 1.481706 0.211672 3.03397 0.282229 4.515676 0.141115 3.03397 0.564459 6.067939 0.917247 9.101909l0.211672 2.257837 0.352787 2.257838c0.211672 1.552263 0.423345 3.03397 0.635017 4.586233 0.211672 1.552263 0.493902 3.03397 0.776132 4.586233 0.28223 1.552263 0.564459 3.03397 0.846689 4.586233 0.28223 1.552263 0.705574 3.03397 1.058362 4.515676 0.352787 1.481706 0.705574 3.03397 1.058361 4.515676l0.141115 0.564459 0.070558 0.28223-0.141115-0.423345 0.070557 0.141115 0.352787 1.199476 0.776132 2.328396 1.481706 4.797905c0.987804 3.245642 1.905051 6.420726 2.822297 9.666368 1.834493 6.420726 3.598429 12.91201 5.150693 19.403294 1.622821 6.491284 3.104527 12.982567 4.445118 19.403293 0.705574 3.245642 1.340591 6.420726 1.975608 9.666368 0.564459 3.245642 1.199476 6.420726 1.693378 9.595811 1.128919 6.350169 2.116723 12.700338 2.892855 18.979949 1.693378 12.488665 2.681182 24.624544 3.175084 36.195962 0.070557 2.892855 0.211672 5.715152 0.211673 8.537449s0.141115 5.574037 0 8.325777c-0.070557 2.75174-0.070557 5.432922-0.211673 8.043547-0.141115 2.610625-0.141115 5.22125-0.352787 7.761318-0.352787 5.080135-0.776132 9.87804-1.340591 14.464273-0.352787 2.257838-0.635017 4.515676-0.917246 6.702956-0.352787 2.18728-0.705574 4.233446-1.058362 6.279612-1.552263 8.043547-3.245642 15.028733-5.150692 20.60277-0.423345 1.411149-0.846689 2.75174-1.270034 3.951216-0.493902 1.199476-0.917247 2.398953-1.270034 3.457314-0.423345 1.058361-0.776132 2.046166-1.128919 2.963412-0.352787 0.917247-0.776132 1.693378-1.058361 2.398953-1.270034 2.822297-1.975608 4.374561-1.975608 4.37456s0.28223-1.622821 0.776131-4.727348a95.12694 95.12694 0 0 0 0.846689-5.644594c0.141115-1.128919 0.352787-2.328395 0.493903-3.598429 0.141115-1.270034 0.28223-2.610625 0.423344-4.021774 0.635017-5.715152 0.987804-12.62978 1.128919-20.532212 0.141115-7.902432-0.070557-16.863226-0.776132-26.600152-0.141115-2.398953-0.352787-4.93902-0.564459-7.40853-0.211672-2.540068-0.493902-5.080135-0.776132-7.69076-0.28223-2.610625-0.564459-5.291807-0.917247-7.97299-0.28223-2.681182-0.705574-5.432922-1.058361-8.184662-1.552263-11.077517-3.457314-22.648935-5.785709-34.573141-1.199476-5.997382-2.398953-12.065321-3.810102-18.13326-0.635017-3.03397-1.411149-6.138497-2.116723-9.243023s-1.481706-6.209054-2.18728-9.313581c-1.481706-6.209054-3.104527-12.488665-4.727348-18.768277-1.693378-6.279611-3.386757-12.559223-5.150692-18.768277-0.917247-3.104527-1.763936-6.279611-2.681183-9.384138l-1.411148-4.656791-0.705575-2.328395-0.352787-1.199476-0.070557-0.141115c-0.352787-1.199476-0.141115-0.423345-0.211673-0.705574l-0.070557-0.28223-0.141115-0.635017c-0.705574-3.386757-1.552263-6.773513-2.116723-10.16027l-0.846689-5.080135c-0.28223-1.693378-0.564459-3.386757-0.705574-5.080135-0.211672-1.693378-0.423345-3.386757-0.56446-5.080135l-0.282229-2.540068-0.141115-2.540067c-0.211672-3.386757-0.493902-6.702956-0.493902-10.089713 0-1.693378-0.070557-3.316199-0.070558-5.009578v-2.46951c0-0.846689 0-1.622821 0.070558-2.46951 0.070557-1.622821 0.070557-3.245642 0.141115-4.93902 0.070557-1.622821 0.211672-3.245642 0.352787-4.868463 0.846689-12.91201 2.892855-25.189003 5.715152-36.548749 2.75174-11.430304 6.350169-21.872804 10.089712-31.3275 3.810101-9.384138 7.831875-17.780473 11.783091-24.97733s7.761317-13.19424 11.077517-18.062703c3.316199-4.868463 6.138497-8.466892 8.114105-10.936401 1.834493-2.257838 3.03397-3.527872 3.033969-3.527872zM549.712947 151.134018s-0.776132 1.481706-2.116723 4.304003c-1.340591 2.822297-3.175084 6.985186-5.432922 12.276993-2.18728 5.291807-4.727348 11.783091-7.337973 19.332736s-5.22125 16.087094-7.620203 25.471233c-0.28223 1.199476-0.564459 2.328395-0.846689 3.598429-0.28223 1.199476-0.564459 2.398953-0.846689 3.668986-0.564459 2.46951-1.058361 4.93902-1.622821 7.479088-0.493902 2.540068-0.987804 5.150692-1.481706 7.761318-0.423345 2.681182-0.846689 5.291807-1.270034 8.043547-1.552263 10.865844-2.46951 22.366706-2.540067 34.220354v4.445118c0.070557 1.481706 0.141115 2.963412 0.141115 4.515676 0 0.776132 0.070557 1.481706 0.070557 2.257837s0.070557 1.481706 0.070558 2.257838c0.070557 1.481706 0.211672 3.03397 0.282229 4.515676 0.141115 3.03397 0.564459 6.067939 0.917247 9.101908l0.211672 2.257838 0.352787 2.257838c0.211672 1.552263 0.423345 3.03397 0.635017 4.586233 0.211672 1.552263 0.493902 3.03397 0.776132 4.586233 0.28223 1.552263 0.564459 3.03397 0.846689 4.586233 0.28223 1.552263 0.705574 3.03397 1.058362 4.515676 0.352787 1.481706 0.705574 3.03397 1.058361 4.515675l0.141115 0.56446 0.070557 0.28223-0.141114-0.423345 0.070557 0.141115 0.352787 1.199476 0.776132 2.328395 1.481706 4.797906c0.987804 3.245642 1.905051 6.420726 2.822297 9.666368 1.834493 6.420726 3.598429 12.91201 5.150693 19.403293 1.622821 6.491284 3.104527 12.982567 4.445118 19.403294 0.705574 3.245642 1.340591 6.420726 1.975608 9.666368 0.564459 3.245642 1.199476 6.420726 1.693378 9.595811 1.128919 6.350169 2.116723 12.700338 2.892855 18.979949 1.693378 12.488665 2.681182 24.624544 3.175084 36.195962 0.070557 2.892855 0.211672 5.715152 0.211673 8.537449s0.141115 5.574037 0 8.325777c-0.070557 2.75174-0.070557 5.432922-0.211673 8.043547-0.141115 2.610625-0.141115 5.22125-0.352787 7.761318-0.352787 5.080135-0.776132 9.87804-1.340591 14.464273-0.352787 2.257838-0.635017 4.515676-0.917247 6.702956-0.352787 2.18728-0.705574 4.233446-1.058361 6.279611-1.552263 8.043547-3.245642 15.028733-5.150693 20.60277-0.423345 1.411149-0.846689 2.75174-1.270033 3.951217-0.493902 1.199476-0.917247 2.398953-1.270034 3.457314-0.423345 1.058361-0.776132 2.046166-1.128919 2.963412-0.352787 0.917247-0.776132 1.693378-1.058361 2.398952-1.270034 2.822297-1.975608 4.374561-1.975609 4.374561s0.28223-1.622821 0.776132-4.727348a95.12694 95.12694 0 0 0 0.846689-5.644594c0.141115-1.128919 0.352787-2.328395 0.493902-3.598429 0.141115-1.270034 0.28223-2.610625 0.423345-4.021774 0.635017-5.715152 0.987804-12.62978 1.128919-20.532212 0.141115-7.902432-0.070557-16.863226-0.776132-26.600152-0.141115-2.398953-0.352787-4.93902-0.564459-7.40853-0.211672-2.540068-0.493902-5.080135-0.776132-7.69076-0.28223-2.610625-0.564459-5.291807-0.917247-7.97299-0.28223-2.681182-0.705574-5.432922-1.058361-8.184662-1.552263-11.077517-3.457314-22.648935-5.78571-34.573141-1.199476-5.997382-2.398953-12.065321-3.810101-18.13326-0.635017-3.03397-1.411149-6.138497-2.116723-9.243024s-1.481706-6.209054-2.18728-9.313581c-1.481706-6.209054-3.104527-12.488665-4.727348-18.768276-1.693378-6.279611-3.386757-12.559223-5.150692-18.768277-0.917247-3.104527-1.763936-6.279611-2.681183-9.384138l-1.411149-4.656791-0.705574-2.328395-0.352787-1.199476-0.070557-0.141115c-0.352787-1.199476-0.141115-0.423345-0.211673-0.705575l-0.070557-0.282229-0.141115-0.635017c-0.705574-3.386757-1.552263-6.773513-2.116723-10.16027l-0.846689-5.080135c-0.28223-1.693378-0.564459-3.386757-0.705574-5.080135-0.211672-1.693378-0.423345-3.386757-0.56446-5.080135l-0.28223-2.540068-0.141114-2.540067c-0.211672-3.386757-0.493902-6.702956-0.493902-10.089713 0-1.693378-0.070557-3.316199-0.070558-5.009578v-2.46951c0-0.846689 0-1.622821 0.070558-2.46951 0.070557-1.622821 0.070557-3.245642 0.141114-4.93902 0.070557-1.622821 0.211672-3.245642 0.352788-4.868463 0.846689-12.91201 2.892855-25.189003 5.715151-36.548749 2.75174-11.430304 6.350169-21.872804 10.089713-31.3275 3.810101-9.384138 7.831875-17.780473 11.783091-24.97733s7.761317-13.19424 11.077517-18.062703c3.316199-4.868463 6.138497-8.466892 8.114104-10.936402 1.905051-2.328395 3.03397-3.527872 3.03397-3.527871z" fill="#EABD2C" p-id="5198"></path><path d="M224.443189 178.369186c1.905051 0 3.880659 0.352787 5.715152 0.776132 0.917247 0.28223 1.905051 0.493902 2.822297 0.846689 0.917247 0.352787 1.834493 0.635017 2.75174 1.058362 0.917247 0.352787 1.834493 0.776132 2.681182 1.270033 0.917247 0.423345 1.763936 0.917247 2.610625 1.481706 0.846689 0.493902 1.693378 1.058361 2.540068 1.622821 0.776132 0.635017 1.622821 1.199476 2.398952 1.834494 1.552263 1.270034 3.104527 2.681182 4.515676 4.162888 0.705574 0.776132 1.411149 1.481706 2.046166 2.328395 0.635017 0.776132 1.340591 1.622821 1.90505 2.46951l1.763936 2.540068c0.564459 0.846689 1.058361 1.763936 1.622821 2.681182 0.564459 0.917247 0.987804 1.834493 1.481706 2.75174l0.705574 1.411149 0.635017 1.411148c0.423345 0.987804 0.846689 1.905051 1.199476 2.892855l0.987804 2.963412c0.352787 0.987804 0.564459 1.975608 0.84669 2.963412 0.28223 0.987804 0.564459 1.975608 0.705574 2.963412l0.635017 3.03397c0.211672 0.987804 0.28223 2.046166 0.423344 3.033969 0.352787 2.046166 0.423345 4.021774 0.56446 6.06794 0.070557 0.987804 0.070557 2.046166 0.070557 3.033969v3.03397c-0.070557 1.975608-0.141115 3.951216-0.282229 5.997381-0.211672 1.975608-0.423345 3.951216-0.635017 5.856267-0.352787 1.905051-0.635017 3.880659-0.987804 5.785709l-0.141115 0.705575-0.141115 0.493902-2.822297 8.396334-1.340592 4.092331-1.340591 4.092331-1.199476 4.092331c-0.352787 1.340591-0.776132 2.681182-1.128919 4.092331-0.705574 2.681182-1.340591 5.432922-1.905051 8.184662-0.28223 1.340591-0.564459 2.75174-0.776131 4.092331-0.211672 1.340591-0.423345 2.75174-0.56446 4.162889l-0.211672 2.116723c-0.070557 0.705574-0.141115 1.411149-0.141115 2.116723-0.070557 0.705574-0.070557 1.411149-0.070557 2.116722-0.070557 0.705574-0.070557 1.411149-0.070558 2.116723v1.058362l0.070558 1.058361v1.058362l0.070557 1.058361c0.070557 0.705574 0.070557 1.481706 0.211672 2.187281 0.070557 0.705574 0.141115 1.481706 0.211673 2.18728 0.211672 1.481706 0.423345 2.963412 0.705574 4.515676l0.493902 2.257837c0.211672 0.776132 0.352787 1.552263 0.564459 2.328396-0.635017-0.493902-1.270034-0.987804-1.834493-1.552264-0.635017-0.564459-1.128919-1.128919-1.763936-1.693378-0.564459-0.564459-1.058361-1.199476-1.62282-1.834493-0.564459-0.635017-1.058361-1.270034-1.552264-1.975608-0.987804-1.340591-1.905051-2.75174-2.681182-4.162889-0.423345-0.705574-0.846689-1.481706-1.199477-2.18728l-0.564459-1.128919-0.493902-1.128919c-0.352787-0.776132-0.635017-1.552263-0.917247-2.328395-0.28223-0.776132-0.564459-1.622821-0.846689-2.398953-0.28223-0.776132-0.493902-1.622821-0.705574-2.46951-0.211672-0.846689-0.423345-1.622821-0.635017-2.46951-0.352787-1.622821-0.635017-3.316199-0.917247-5.009578-0.211672-1.693378-0.423345-3.316199-0.493902-5.009577-0.211672-3.386757-0.211672-6.702956 0-10.019156 0.141115-1.622821 0.211672-3.316199 0.423345-4.93902s0.423345-3.245642 0.705574-4.868463c0.28223-1.622821 0.564459-3.175084 0.846689-4.797905 0.28223-1.552263 0.635017-3.175084 1.058362-4.65679 0.352787-1.552263 0.776132-3.104527 1.199476-4.586233 0.423345-1.552263 0.846689-3.03397 1.270034-4.515676l-0.28223 1.270034c0.211672-1.622821 0.493902-3.316199 0.705574-4.93902l0.56446-4.868463 0.423345-4.868463c0.070557-1.622821 0.211672-3.245642 0.211672-4.797905 0-1.622821 0.070557-3.175084 0-4.797906l-0.070558-2.398952-0.141114-2.328396c0-0.776132-0.141115-1.552263-0.211673-2.328395-0.070557-0.776132-0.141115-1.552263-0.282229-2.328395l-0.352788-2.328395c-0.070557-0.776132-0.28223-1.552263-0.423344-2.328395l-0.211673-1.128919-0.282229-1.128919c-0.211672-0.776132-0.352787-1.552263-0.56446-2.257838-0.211672-0.776132-0.423345-1.481706-0.635017-2.257838l-0.776131-2.257838-0.84669-2.18728c-0.28223-0.705574-0.635017-1.481706-0.917246-2.18728-0.352787-0.705574-0.705574-1.411149-1.058362-2.187281-0.352787-0.705574-0.776132-1.411149-1.128918-2.18728l-1.270034-2.116723c-0.493902-0.705574-0.917247-1.411149-1.411149-2.116723-0.917247-1.411149-1.975608-2.75174-3.104527-4.162888-0.564459-0.705574-1.128919-1.340591-1.693378-1.975609-0.564459-0.705574-1.199476-1.340591-1.834493-1.975608-1.058361-1.481706-2.398953-2.75174-3.880659-3.951216zM407.539723 100.826569c-1.270034 1.128919-2.540068 2.328395-3.668986 3.527872l-1.763936 1.763936c-0.564459 0.635017-1.128919 1.199476-1.622821 1.834493l-0.776132 0.917246c-0.28223 0.28223-0.493902 0.635017-0.776132 0.917247-0.564459 0.564459-0.987804 1.199476-1.481706 1.834493-0.493902 0.635017-0.917247 1.270034-1.411148 1.834493l-1.340591 1.905051-1.270034 1.905051-1.128919 1.90505-1.058362 1.905051c-0.352787 0.635017-0.635017 1.340591-0.987804 1.975608-0.635017 1.270034-1.199476 2.610625-1.622821 3.951216-0.141115 0.352787-0.28223 0.635017-0.352787 0.987804l-0.282229 0.987804c-0.211672 0.635017-0.423345 1.270034-0.56446 1.975608-0.141115 0.635017-0.352787 1.270034-0.493902 1.975609-0.141115 0.635017-0.211672 1.340591-0.352787 1.975608-0.141115 0.635017-0.141115 1.340591-0.28223 1.975608-0.141115 0.635017-0.141115 1.340591-0.211672 1.975608-0.141115 1.340591-0.141115 2.681182-0.141115 3.951216 0 0.635017 0.070557 1.340591 0.070557 1.975608v0.987804c0 0.352787 0.070557 0.705574 0.141115 0.987804l0.211673 1.975608 0.282229 2.046166c0.141115 1.340591 0.493902 2.681182 0.776132 4.021773 0.28223 1.340591 0.705574 2.681182 0.987804 4.092331 0.423345 1.340591 0.846689 2.681182 1.270034 4.092331l-0.352787-0.917246c0.705574 1.622821 1.411149 3.245642 2.116723 4.93902 0.705574 1.693378 1.411149 3.316199 2.116723 5.080135 1.411149 3.386757 2.681182 6.985186 3.810101 10.583615 0.564459 1.834493 1.058361 3.668986 1.622821 5.574037 0.493902 1.905051 0.917247 3.810101 1.270034 5.715152 0.141115 0.987804 0.352787 1.905051 0.493902 2.892854l0.423344 2.963412c0.211672 1.975608 0.352787 3.951216 0.493902 5.926825 0.070557 1.975608 0.070557 4.021774-0.070557 5.997381-0.070557 1.975608-0.28223 4.021774-0.56446 5.997382s-0.705574 3.951216-1.128919 5.856267c-0.493902 1.905051-1.058361 3.810101-1.693378 5.644594l-1.058361 2.75174-1.199477 2.681182c-0.917247 1.763936-1.763936 3.457314-2.822297 5.080135-0.493902 0.846689-1.058361 1.622821-1.552263 2.398953l-0.84669 1.128919-0.846689 1.128919c-1.199476 1.481706-2.46951 2.892855-3.810101 4.233446 0.211672-1.905051 0.564459-3.668986 0.705574-5.50348l0.211673-1.340591 0.141114-1.340591c0.070557-0.917247 0.211672-1.763936 0.28223-2.681183 0.070557-0.917247 0.141115-1.763936 0.211672-2.610625l0.141115-2.610625 0.070558-2.540067v-2.540068c-0.070557-1.693378-0.141115-3.316199-0.28223-5.009577-0.070557-0.846689-0.141115-1.622821-0.28223-2.46951-0.070557-0.776132-0.211672-1.622821-0.352787-2.398953-0.493902-3.175084-1.128919-6.350169-1.975608-9.454696-0.423345-1.552263-0.846689-3.104527-1.340591-4.65679-0.493902-1.552263-0.987804-3.104527-1.552264-4.586233l-0.846689-2.328395-0.917246-2.328396-0.917247-2.328395-0.987804-2.328395-1.975608-4.656791-2.046166-4.727348-2.116723-4.868462c-0.705574-1.622821-1.411149-3.316199-2.116723-4.93902l-0.211672-0.56446-0.070557-0.352787c-0.493902-1.763936-0.987804-3.598429-1.481706-5.432922-0.211672-0.917247-0.352787-1.834493-0.56446-2.75174-0.211672-0.917247-0.352787-1.834493-0.493902-2.822297-0.211672-1.905051-0.493902-3.739544-0.564459-5.715152-0.070557-0.987804-0.070557-1.905051-0.141115-2.892855l0.070557-2.892855c0-0.493902 0-0.987804 0.070558-1.481706l0.141115-1.481706c0.070557-0.987804 0.211672-1.975608 0.352787-2.892854 0.352787-1.975608 0.635017-3.880659 1.199476-5.78571 0.423345-1.905051 1.199476-3.739544 1.834493-5.644594 0.352787-0.917247 0.776132-1.834493 1.199477-2.681183 0.423345-0.917247 0.917247-1.763936 1.340591-2.610625 0.423345-0.846689 0.987804-1.693378 1.481706-2.46951l0.776132-1.199476c0.28223-0.423345 0.564459-0.776132 0.846689-1.199476 1.128919-1.552263 2.398953-3.03397 3.668986-4.374561 0.635017-0.705574 1.340591-1.340591 1.975608-1.975608 0.705574-0.635017 1.411149-1.270034 2.116723-1.834493s1.481706-1.128919 2.187281-1.693379c0.776132-0.564459 1.481706-1.058361 2.257837-1.552263 1.552263-0.987804 3.104527-1.905051 4.727348-2.681183 1.622821-0.776132 3.245642-1.552263 4.868463-2.116723 1.622821-0.635017 3.316199-1.128919 5.009578-1.552263 1.340591-0.493902 3.03397-0.776132 4.797905-0.917247z" fill="#774621" p-id="5199"></path></svg>