<?xml version="1.0" standalone="no"?><!DOCTYPE svg PUBLIC "-//W3C//DTD SVG 1.1//EN" "http://www.w3.org/Graphics/SVG/1.1/DTD/svg11.dtd"><svg t="1599669128718" class="icon" viewBox="0 0 1024 1024" version="1.1" xmlns="http://www.w3.org/2000/svg" p-id="2291" xmlns:xlink="http://www.w3.org/1999/xlink" width="32" height="32"><defs><style type="text/css"></style></defs><path d="M146.285714 0h731.428572c80.790857 0 146.285714 65.494857 146.285714 146.285714v731.428572c0 80.790857-65.494857 146.285714-146.285714 146.285714H146.285714C65.494857 1024 0 958.505143 0 877.714286V146.285714C0 65.494857 65.494857 0 146.285714 0z m176.274286 203.337143C291.108571 315.977143 240.64 416.914286 171.885714 504.685714l17.554286 55.588572c24.137143-27.794286 46.811429-57.782857 67.291429-88.502857V877.714286h53.394285V380.342857c24.137143-48.274286 44.617143-100.205714 61.44-154.331428l-49.005714-22.674286z m272.091429 0l-53.394286 8.777143c8.045714 16.822857 15.36 35.108571 21.942857 54.125714H371.565714v46.811429h452.754286v-46.811429h-208.457143c-7.314286-23.405714-13.897143-44.617143-21.211428-62.902857zM419.84 355.474286V493.714286H768V355.474286H419.84zM716.8 453.485714H471.04v-57.782857H716.8v57.782857z m108.982857 82.651429h-460.8v125.074286h49.005714v32.914285H574.171429v105.325715c0 16.091429-9.508571 24.868571-28.525715 24.868571-24.137143 0-49.005714-1.462857-75.337143-2.925714l10.971429 51.2h82.651429c42.422857 0 64.365714-20.48 64.365714-59.977143V694.125714H786.285714v-32.914285h39.497143V536.137143z m-409.6 112.64v-66.56H775.314286v66.56H416.182857z" fill="#9AA8B8" p-id="2292"></path></svg>