<?xml version="1.0" standalone="no"?><!DOCTYPE svg PUBLIC "-//W3C//DTD SVG 1.1//EN" "http://www.w3.org/Graphics/SVG/1.1/DTD/svg11.dtd"><svg t="1597331910953" class="icon" viewBox="0 0 1024 1024" version="1.1" xmlns="http://www.w3.org/2000/svg" p-id="39415" width="14" height="14" xmlns:xlink="http://www.w3.org/1999/xlink"><defs><style type="text/css"></style></defs><path d="M854.37 783.4a39.81 39.81 0 0 0-11-27.59l-274.8-274.75a80 80 0 0 0-113.14 0L181.34 755.15a40 40 0 0 0-3.53 52.52 36.64 36.64 0 0 0 3.27 3.67l0.63 0.64a37.21 37.21 0 0 0 3.7 3.28 40 40 0 0 0 52.5-3.54l272.86-272.85a1.73 1.73 0 0 1 2.47 0L784.8 810.43a41.75 41.75 0 0 0 59 0 0.86 0.86 0 0 0 0.13-0.14 39.8 39.8 0 0 0 10.44-26.89z" p-id="39416" fill="#f56358"></path><path d="M854.37 527.34a39.81 39.81 0 0 0-11-27.59L568.57 225a80 80 0 0 0-113.14 0L181.34 499.09a40 40 0 0 0-3.53 52.52 36.64 36.64 0 0 0 3.27 3.67l0.63 0.64a37.21 37.21 0 0 0 3.7 3.28 40 40 0 0 0 52.5-3.54l272.86-272.85a1.73 1.73 0 0 1 2.47 0L784.8 554.37a41.75 41.75 0 0 0 59 0 0.86 0.86 0 0 0 0.13-0.14 39.8 39.8 0 0 0 10.44-26.89z" p-id="39417" fill="#f56358"></path></svg>