<?xml version="1.0" standalone="no"?><!DOCTYPE svg PUBLIC "-//W3C//DTD SVG 1.1//EN" "http://www.w3.org/Graphics/SVG/1.1/DTD/svg11.dtd"><svg t="1599281794383" class="icon" viewBox="0 0 1024 1024" version="1.1" xmlns="http://www.w3.org/2000/svg" p-id="30285" xmlns:xlink="http://www.w3.org/1999/xlink" width="32" height="32"><defs><style type="text/css"></style></defs><path d="M752.084 181.418s0 0.016-0.032 0.016c-8.312 8.328-8.312 21.844 0 30.172 8.344 8.328 21.844 8.328 30.188 0l53.092-53.108-30.154-30.17-53.094 53.09zM842.582 271.948l53.092-53.108-30.156-30.172-53.09 53.092-0.032 0.016c-8.312 8.328-8.312 21.844 0 30.172a21.36 21.36 0 0 0 30.186 0z" fill="#FFCE54" p-id="30286"></path><path d="M661.15 483.536l150.872-150.856-120.686-120.668-150.872 150.84-226.246 75.42L12.51 739.966c-16.656 16.656-16.656 43.688 0 60.344l211.182 211.182c16.656 16.654 43.686 16.654 60.342 0l301.71-301.71 75.406-226.246z" fill="#A0D468" p-id="30287"></path><path d="M284.038 468.44L555.56 739.96 344.38 951.14 72.86 679.62z" fill="#E6E9ED" p-id="30288"></path><path d="M691.304 212.028l-30.124 30.124c0.094 0.11 0.188 0.234 0.282 0.344a21.36 21.36 0 0 0 30.186 0c8.312-8.328 8.312-21.828 0-30.154l-0.032-0.032c-0.092-0.11-0.218-0.188-0.312-0.282zM781.834 332.68c-8.312 8.328-8.312 21.844 0 30.172l30.188-30.172c-8.344-8.328-21.844-8.328-30.188 0z" fill="#8CC153" p-id="30289"></path><path d="M857.644 196.528c-8.312 8.328-21.812 8.328-30.156 0-8.342-8.344-8.342-21.844 0-30.172 8.344-8.328 21.844-8.328 30.156 0 8.342 8.328 8.342 21.828 0 30.172z" fill="#F6BB42" p-id="30290"></path><path d="M782.24 271.948c-8.344 8.328-21.844 8.328-30.188 0-8.312-8.328-8.312-21.844 0-30.172 8.344-8.328 21.844-8.328 30.188 0 8.312 8.328 8.312 21.844 0 30.172z" fill="#FFCE54" p-id="30291"></path><path d="M638.588 551.222l13.562-40.656c-21.938-9.484-50.844-26.546-81.5-57.202-30.654-30.67-47.714-59.562-57.216-81.498l-40.656 13.546c11.124 26.86 31.25 61.67 67.686 98.124 36.468 36.438 71.28 56.562 98.124 67.686z" fill="#434A54" p-id="30292"></path><path d="M1023.982 120.702L903.298 0.018l-90.496 90.514 15.092 15.076-30.186 30.172 90.528 90.512 30.156-30.17 15.094 15.078z" fill="#E6E9ED" p-id="30293"></path><path d="M329.282 755.06l-60.342-60.342c-8.312-8.344-21.812-8.344-30.156 0-8.342 8.312-8.342 21.844 0 30.154l60.342 60.344c8.312 8.344 21.842 8.344 30.156 0 8.344-8.342 8.344-21.842 0-30.156zM419.812 724.874h-0.032l-120.654-120.652v-0.032c-8.344-8.312-21.844-8.312-30.186 0-8.312 8.344-8.312 21.844 0 30.188l120.684 120.684c8.344 8.312 21.844 8.312 30.188 0 8.312-8.346 8.312-21.846 0-30.188z" fill="#434A54" p-id="30294"></path><path d="M888.236 226.292L797.708 135.78l30.186-30.172 90.498 90.514z" fill="#CCD1D9" p-id="30295"></path><path d="M630.994 453.366l-75.436 226.26-301.68 301.71c-16.686 16.656-43.686 16.656-60.342 0l30.156 30.156c16.656 16.654 43.686 16.654 60.342 0l301.71-301.71 75.406-226.246 150.872-150.856-30.188-30.17-150.84 150.856z" fill="#FFFFFF" opacity=".2" p-id="30296"></path></svg>