<?xml version="1.0" standalone="no"?><!DOCTYPE svg PUBLIC "-//W3C//DTD SVG 1.1//EN" "http://www.w3.org/Graphics/SVG/1.1/DTD/svg11.dtd"><svg t="1599281032430" class="icon" viewBox="0 0 1024 1024" version="1.1" xmlns="http://www.w3.org/2000/svg" p-id="30142" xmlns:xlink="http://www.w3.org/1999/xlink" width="32" height="32"><defs><style type="text/css"></style></defs><path d="M260.6 483.6c0.7-0.7 1-0.9 1-0.9s-0.3 0.3-1 0.9c-2.7 2.9-10.8 15.3-25.8 67.9-18.9 66.3 10.7 362.3 10.7 367.7 0 3.3-8.4 6-16.3 6-5 0-9.8-1.1-12-3.9-5.8-7.2-15-307.5-13.2-350.5 1.6-39.4 49-80.8 56.6-87.2M373.3 62.2h-95l0.7 56.3 13.3 13.3-2.9 193.9c-3.6 35.8-16.5 59.1-27.2 80.6-10.8 21.5-60.9 78.8-82.4 116.5-15.9 27.8-18.1 50.8-18.1 60.8v0.8c0 3 0.2 4.7 0.2 4.7l18.8 369.2 287-1.3 13.1-203s-34-19.7-62.7-52-46.9-82.4-46.9-82.4h118.6v-47.5c-0.1-15.9-3.8-33.5-14.3-52.8-10.8-19.7-87.8-129-102.1-150.5-14.3-21.5-12.5-46.6-12.5-46.6V130.5l12.5-14.3-0.1-54" fill="#EA5969" p-id="30143"></path><path d="M622.9 758.3s-151.6-6.7-191.9-99.4c115.6-1.3 428.7 0 428.7 0s-55.1 95.4-196.2 99.4c-6.7 6.7-9.4 28.2-10.8 64.5-1.3 36.3-1.3 69.9-1.3 69.9s-2.7 32.3 14.8 37.6 95.4 6.7 90 18.8c-5.4 12.1-194.9 12.1-207 0s82-17.5 82-17.5 6.7-21.5 6.7-40.3 2.2-118.2-15-133z" fill="#EA5969" p-id="30144"></path><path d="M762.1 542.8a27.8 27.8 0 1 0 55.6 0 27.8 27.8 0 1 0-55.6 0zM668.5 570.6a13.9 13.9 0 1 0 27.8 0 13.9 13.9 0 1 0-27.8 0zM558 556.7a20.2 20.2 0 1 0 40.4 0 20.2 20.2 0 1 0-40.4 0zM674.9 487.5a32.3 32.3 0 1 0 64.6 0 32.3 32.3 0 1 0-64.6 0zM604.4 432.4a15.5 15.5 0 1 0 31 0 15.5 15.5 0 1 0-31 0z" fill="#5CE4E1" p-id="30145"></path></svg>