<?xml version="1.0" standalone="no"?><!DOCTYPE svg PUBLIC "-//W3C//DTD SVG 1.1//EN" "http://www.w3.org/Graphics/SVG/1.1/DTD/svg11.dtd"><svg t="1599276215961" class="icon" viewBox="0 0 1024 1024" version="1.1" xmlns="http://www.w3.org/2000/svg" p-id="24438" xmlns:xlink="http://www.w3.org/1999/xlink" width="14" height="14"><defs><style type="text/css"></style></defs><path d="M512 541.477414l148.974314-149.201063c9.523472-9.296723 24.715678-9.296723 34.0124 0s9.296723 24.488928 0 34.0124l-158.951284 158.951284v1.133747h141.945084c13.378211 0 24.03543 10.883968 24.035429 24.03543 0 13.378211-10.657219 24.03543-24.035429 24.035429h-141.945084v73.920284h141.945084c13.378211 0 24.03543 10.657219 24.035429 24.035429 0 13.151461-10.657219 24.03543-24.035429 24.03543h-141.945084v97.955713c0 13.378211-10.883968 24.03543-24.03543 24.035429-13.378211 0-24.03543-10.657219-24.03543-24.035429v-97.955713h-142.171833c-13.151461 0-23.80868-10.883968-23.80868-24.03543 0-13.378211 10.657219-24.03543 23.80868-24.035429h142.171833v-73.920284h-142.171833c-13.151461 0-23.80868-10.657219-23.80868-24.035429 0-13.151461 10.657219-24.03543 23.80868-24.03543h142.171833v-1.133747l-158.951284-158.951284c-9.523472-9.523472-9.523472-24.715678 0-34.0124 9.296723-9.296723 24.488928-9.296723 33.785651 0l149.201063 149.201063z" fill="#2c2c2c" p-id="24439"></path><path d="M512 58.954827c39.454384 0 60.088574 20.180691 80.269265 39.681134 9.523472 9.296723 19.046944 18.593446 29.477413 21.767936 7.029229 2.267493 20.860939-1.360496 35.372897-5.441984 34.692648-9.296723 72.559787-19.273694 107.932684 14.285208 11.110717 10.430469 18.366696 22.674934 22.221435 36.053145 5.441984 17.686448 4.081488 36.733392-2.040744 54.873339-5.895483 17.0062-16.325952 33.558902-29.930913 48.070859-7.255979 7.709477-15.645704 14.965456-24.942427 21.314438 47.61736 29.930912 89.112489 71.199291 121.310895 116.322409 44.896368 63.036315 71.879539 134.462356 71.879539 194.097431 0 119.270151-41.721878 207.475642-109.973428 267.564216-75.507529 66.437555-182.986714 97.275465-301.576616 97.275465-118.816652 0-226.069088-30.83791-301.576616-97.275465-68.478299-60.088574-109.973428-148.294066-109.973428-267.564216 0-57.140833 21.994686-116.549159 60.088574-172.782994 33.105403-48.751107 78.908769-95.234721 132.87511-135.369353-21.087688-19.727192-37.867139-43.762622-46.483613-67.571302-9.750221-27.663419-9.296723-55.553587 5.895482-78.682019 2.040744-2.947741 4.534987-6.122232 7.482728-9.296723 37.867139-41.495128 82.763508-31.744907 122.671391-23.128432 17.0062 3.40124 32.425155 6.80248 40.361382 4.081488 8.389725-2.947741 13.831709-10.883968 19.273693-18.593446 13.831709-19.953942 27.43667-39.681134 69.385297-39.681134z m46.937112 73.920284c-13.151461-12.697963-26.756422-25.849424-46.937112-25.849425-17.0062 0-23.581931 9.296723-30.157662 18.820195-9.750221 14.058459-19.727192 28.343667-42.628875 36.506643-20.63419 7.255979-42.402126 2.494243-65.984056-2.494242-27.43667-5.895483-58.501329-12.471213-77.775023 8.616474-0.906997 0.906997-1.813995 2.040744-2.720992 3.62799-6.122232 9.296723-5.668733 22.221435-0.680248 36.053144 6.122232 17.0062 18.820195 34.692648 34.919398 49.658105 5.895483 5.215235 12.471213 10.430469 19.500443 14.965456v0.226749c2.494243 1.587245 4.761736 3.854739 6.575731 6.575731 7.482728 10.883968 4.534987 25.849424-6.575731 33.105403-60.542073 40.81488-111.107174 89.792737-146.480071 141.491585-32.651904 48.070859-51.698849 98.409212-51.698848 145.799823 0 104.077945 35.599646 180.265722 93.874225 231.511072 66.210806 58.274579 162.352524 85.4845 269.831709 85.4845s203.620903-27.20992 269.831709-85.4845c58.274579-51.24535 93.647476-127.433127 93.647476-231.511072 0-49.884854-23.581931-111.107174-62.809566-166.434012-36.733392-51.472099-86.844996-97.275465-143.759079-122.89814-6.348981-2.720992-11.790965-8.162976-13.831709-15.418955-3.854739-12.697963 3.627989-26.076174 16.099203-29.704163 19.500443-5.668733 36.733392-16.779451 49.431355-30.384411 8.843224-9.296723 15.645704-19.953942 19.273693-30.384411 3.174491-9.069973 3.854739-18.139947 1.587246-26.076173-1.587245-5.215235-4.761736-10.20372-9.523472-14.738707-15.645704-14.965456-40.134632-8.616475-62.356068-2.494243-21.541187 5.668733-41.721878 11.110717-62.129318 4.761736-21.087688-6.575731-34.692648-19.953942-48.524358-33.332152z" fill="#2c2c2c" p-id="24440"></path></svg>