<?xml version="1.0" standalone="no"?><!DOCTYPE svg PUBLIC "-//W3C//DTD SVG 1.1//EN" "http://www.w3.org/Graphics/SVG/1.1/DTD/svg11.dtd"><svg t="1604383931160" class="icon" viewBox="0 0 1024 1024" version="1.1" xmlns="http://www.w3.org/2000/svg" p-id="3063" xmlns:xlink="http://www.w3.org/1999/xlink" width="14" height="14"><defs><style type="text/css"></style></defs><path d="M896 227.104c-8.192 0-16.384-3.136-22.624-9.376l-96-96c-12.512-12.512-12.512-32.736 0-45.248s32.736-12.512 45.248 0l96 96c12.512 12.512 12.512 32.736 0 45.248C912.384 223.968 904.192 227.104 896 227.104z" p-id="3064" fill="#2c2c2c"></path><path d="M129.216 225.12c-8.192 0-16.384-3.136-22.624-9.376-12.512-12.512-12.512-32.736 0-45.248l96-96c12.512-12.512 32.736-12.512 45.248 0 12.512 12.512 12.512 32.736 0 45.248l-96 96C145.6 222.016 137.408 225.12 129.216 225.12z" p-id="3065" fill="#2c2c2c"></path><path d="M726.624 345.728c12.512-12.512 12.512-32.736 0-45.248s-32.736-12.512-45.248 0l-128 128c-0.096 0.064-0.096 0.192-0.192 0.288-12.576-6.016-26.4-9.664-41.184-9.664s-28.672 3.648-41.184 9.664c-0.064-0.096-0.096-0.192-0.192-0.288l-96-96c-12.512-12.512-32.736-12.512-45.248 0s-12.512 32.736 0 45.248l96 96c0.064 0.064 0.192 0.096 0.288 0.192C419.648 486.432 416 500.288 416 515.104c0 52.928 43.072 96 96 96 52.928 0 96-43.104 96-96 0-14.784-3.648-28.672-9.664-41.184 0.096-0.064 0.192-0.096 0.288-0.192L726.624 345.728zM512 547.136c-17.632 0-32-14.368-32-32s14.368-32 32-32 32 14.368 32 32S529.632 547.136 512 547.136z" p-id="3066" fill="#2c2c2c"></path><path d="M506.848 515.104" p-id="3067" fill="#2c2c2c"></path><path d="M809.888 804.864C882.816 729.952 928 627.712 928 515.104c0-229.376-186.624-416-416-416s-416 186.624-416 416c0 113.376 45.696 216.192 119.52 291.328l-48.896 73.984c-9.728 14.752-5.696 34.624 9.056 44.32 5.44 3.584 11.552 5.312 17.6 5.312 10.4 0 20.576-4.992 26.72-14.336l44.352-67.168c69.28 51.584 154.816 82.56 247.648 82.56 93.568 0 179.744-31.424 249.312-83.808l45.376 66.56c6.176 9.056 16.256 13.984 26.464 13.984 6.208 0 12.48-1.856 17.984-5.6 14.624-9.984 18.368-29.888 8.448-44.448L809.888 804.864zM160 515.104c0-194.08 157.92-352 352-352 194.048 0 352 157.92 352 352s-157.952 352-352 352C317.92 867.136 160 709.184 160 515.104z" p-id="3068" fill="#2c2c2c"></path></svg>