<?xml version="1.0" standalone="no"?><!DOCTYPE svg PUBLIC "-//W3C//DTD SVG 1.1//EN" "http://www.w3.org/Graphics/SVG/1.1/DTD/svg11.dtd"><svg t="1598099109578" class="icon" viewBox="0 0 1024 1024" version="1.1" xmlns="http://www.w3.org/2000/svg" p-id="3011" xmlns:xlink="http://www.w3.org/1999/xlink" width="14" height="14"><defs><style type="text/css"></style></defs><path d="M101.234037 78.690491h821.196052c20.600275 0 37.234037-17.593402 37.234037-39.345245 0-21.687867-16.697738-39.345246-37.234037-39.345246H101.234037C80.633762 0 64 17.593402 64 39.345246c0 21.687867 16.697738 39.345246 37.234037 39.345245z m773.022117 445.273023L538.126203 169.152568l-1.343497-1.343496-0.63976-0.63976-0.703736-0.639761-0.895664-0.703736-0.575784-0.447832-0.95964-0.703736-0.511808-0.383856-1.023616-0.703736-0.511808-0.31988-1.023616-0.63976-0.575785-0.31988-0.95964-0.511808-0.63976-0.31988-0.895664-0.447832-0.767712-0.383856-0.831688-0.31988-0.895664-0.383857-0.703736-0.255904-1.023617-0.383856-0.63976-0.191928-1.151568-0.31988-0.575784-0.127952-1.151568-0.255904-0.63976-0.127952-1.151568-0.191928-0.703736-0.063976-1.087593-0.127952-0.95964-0.063976-0.895664-0.063976L511.832063 157.700862l-1.855304 0.063976-0.895664 0.063976-0.959641 0.063976-1.087592 0.127952-0.703736 0.063976-1.151568 0.191928-0.63976 0.127952-1.151568 0.255904-0.575784 0.127952-1.151568 0.31988-0.639761 0.191928-1.023616 0.383856-0.703736 0.255904-0.895664 0.383857-0.831688 0.31988-0.767712 0.383856-0.895664 0.447832-0.703736 0.31988-0.703736 0.383856-0.255904 0.191928-0.575785 0.31988-1.023616 0.63976-0.511808 0.31988-0.191928 0.127952-0.831688 0.575784-0.511808 0.383856-0.95964 0.703736-0.575784 0.447832-0.895664 0.703736-0.703736 0.639761-0.383857 0.31988-0.31988 0.255904-1.343496 1.343496-336.129951 354.810946c-14.522554 15.354242-14.522554 40.24091 0 55.595152s38.129701 15.354242 52.652255 0l272.537799-287.700113v692.412345c0 21.687867 16.697738 39.345246 37.234037 39.345246 20.600275 0 37.234037-17.593402 37.234037-39.345246V291.858553l272.537799 287.700113a35.826565 35.826565 0 0 0 52.652255 0 40.944646 40.944646 0 0 0 0-55.595152z" p-id="3012" fill="#2c2c2c"></path></svg>