<?xml version="1.0" standalone="no"?><!DOCTYPE svg PUBLIC "-//W3C//DTD SVG 1.1//EN" "http://www.w3.org/Graphics/SVG/1.1/DTD/svg11.dtd"><svg t="1596362142019" class="icon" viewBox="0 0 1025 1024" version="1.1" xmlns="http://www.w3.org/2000/svg" p-id="4492" xmlns:xlink="http://www.w3.org/1999/xlink" width="64.0625" height="64"><defs><style type="text/css"></style></defs><path d="M980.672 279.36c0 0-49.173333 1.621333-87.125333 53.098667l-266.816 325.333333c0 0-29.397333 27.328-68.245333-1.344 0 0-102.912-80.746667-141.674667-116.138667 0 0-13.461333-13.269333-41.6 10.858667l-147.370667 168.853333c0 0-9.792 20.906667-31.808 9.642667l-161.536-107.669333c0 0-26.112-14.08-34.261333 33.792L0.234667 968.533333c0 0 2.453333 24.128 36.714667 33.792l948.629333 0c0 0 32.938667-9.664 38.656-44.650667L1024.234667 310.229333C1024.213333 310.229333 1021.461333 275.349333 980.672 279.36zM219.989333 632.149333l167.765333-190.250667 171.797333 144.149333c25.770667 16.96 41.728-8.853333 41.728-8.853333L1009.301333 92.224C1017.578667 84.672 1024 63.253333 1024 63.253333c2.133333-31.381333-50.176-18.112-50.176-18.112L715.605333 99.456c-16.512 4.522667-19.584 7.253333-19.584 7.253333-34.581333 19.904-6.122667 51.882667-6.122667 51.882667l61.184 50.666667-190.805333 205.738667-141.952-117.034667c-47.424-36.501333-90.56 6.016-90.56 6.016L80.768 574.037333l96.341333 71.893333C200.746667 663.082667 219.989333 632.149333 219.989333 632.149333z" p-id="4493" fill="#707070"></path></svg>