<?xml version="1.0" standalone="no"?><!DOCTYPE svg PUBLIC "-//W3C//DTD SVG 1.1//EN" "http://www.w3.org/Graphics/SVG/1.1/DTD/svg11.dtd"><svg t="1596365139819" class="icon" viewBox="0 0 1024 1024" version="1.1" xmlns="http://www.w3.org/2000/svg" p-id="14477" width="16" height="16" xmlns:xlink="http://www.w3.org/1999/xlink"><defs><style type="text/css"></style></defs><path d="M765.99296 822.53824c-18.71872 0-37.56032-6.41024-53.00224-19.47648l-172.4416-146.47296-172.4416 146.47296c-34.52928 29.30688-86.20032 25.06752-115.48672-9.40032-29.2864-34.48832-25.088-86.17984 9.40032-115.46624l225.4848-191.52896c30.59712-25.98912 75.48928-25.98912 106.0864 0l225.4848 191.52896c34.48832 29.2864 38.68672 80.9984 9.40032 115.46624C812.27776 812.72832 789.23776 822.53824 765.99296 822.53824zM828.47744 527.93344c29.2864-34.48832 25.088-86.17984-9.40032-115.46624l-225.4848-191.52896c-30.59712-25.98912-75.48928-25.98912-106.0864 0l-225.4848 191.52896c-34.48832 29.2864-38.68672 80.9984-9.40032 115.46624s80.95744 38.68672 115.48672 9.40032l172.4416-146.47296 172.4416 146.47296c15.44192 13.08672 34.28352 19.47648 53.00224 19.47648C789.23776 556.81024 812.27776 547.00032 828.47744 527.93344z" p-id="14478" fill="#d81e06"></path></svg>